<?xml version="1.0" standalone="no"?>
<!DOCTYPE svg PUBLIC "-//W3C//DTD SVG 20010904//EN"
 "http://www.w3.org/TR/2001/REC-SVG-20010904/DTD/svg10.dtd">
<svg version="1.0" xmlns="http://www.w3.org/2000/svg"
 width="340.000000pt" height="340.000000pt" viewBox="0 0 340.000000 340.000000"
 preserveAspectRatio="xMidYMid meet">
<metadata>
Created by potrace 1.14, written by Peter Selinger 2001-2017
</metadata>
<g transform="translate(0.000000,340.000000) scale(0.100000,-0.100000)"
fill="#000000" stroke="none">
<path d="M1459 3186 c-42 -12 -107 -41 -145 -63 -115 -68 -265 -225 -379 -397
-52 -78 -159 -300 -191 -396 -14 -41 -29 -84 -35 -95 -10 -22 -50 -169 -54
-200 -1 -13 -8 -19 -21 -17 -26 4 -58 9 -65 11 -3 0 -11 12 -17 26 -7 15 -27
32 -45 40 -23 11 -27 14 -12 15 20 1 20 1 1 15 -29 22 -39 18 -32 -10 6 -25
-3 -31 -41 -26 -7 1 -13 -3 -13 -9 0 -6 -4 -8 -10 -5 -5 3 -10 11 -10 16 0 6
5 7 10 4 6 -3 10 3 10 15 0 13 -4 19 -12 14 -7 -4 -8 -3 -4 4 11 18 24 14 31
-8 3 -11 13 -20 22 -20 14 0 14 2 0 18 -10 10 -14 22 -10 25 3 4 -3 7 -15 7
-12 0 -22 5 -22 10 0 13 37 13 45 0 5 -8 11 -8 20 0 9 7 16 6 25 -5 14 -17 40
-20 40 -5 0 6 -7 10 -15 10 -9 0 -18 8 -22 18 -3 9 -24 34 -47 54 -29 27 -36
38 -23 38 9 0 17 -4 17 -10 0 -5 7 -10 15 -10 8 0 15 -4 15 -10 0 -5 11 -10
25 -10 14 0 25 5 25 10 0 6 -6 10 -13 10 -19 0 -83 57 -75 66 5 4 16 -2 26
-14 11 -12 22 -18 26 -15 4 4 11 1 16 -7 5 -8 12 -12 15 -8 6 6 -13 27 -78 86
-21 18 -37 38 -37 45 0 8 -4 7 -11 -3 -9 -12 -10 -10 -6 8 10 44 -15 17 -40
-43 -13 -33 -30 -73 -38 -90 -25 -55 -55 -135 -53 -143 0 -4 -2 -14 -5 -22
-20 -48 -48 -189 -57 -284 -19 -192 8 -430 65 -576 39 -101 81 -198 97 -222
10 -14 18 -31 18 -38 0 -6 3 -9 8 -7 4 3 16 -7 27 -20 11 -14 30 -37 43 -51
12 -14 21 -31 18 -38 -3 -7 2 -15 10 -18 8 -3 13 -11 12 -18 -2 -7 3 -12 10
-10 9 2 11 -4 7 -18 -4 -11 -2 -20 4 -20 6 0 11 -8 11 -17 0 -13 3 -14 12 -5
17 17 33 15 18 -3 -21 -25 -7 -26 36 -4 l39 21 -19 -21 c-11 -11 -25 -21 -33
-21 -7 0 -13 -4 -13 -10 0 -14 20 -12 54 5 44 23 45 17 1 -10 l-40 -25 30 0
c29 -1 29 -1 11 -15 -18 -14 -16 -15 25 -11 24 3 35 2 24 -1 -35 -9 -41 -23
-11 -23 24 0 27 -2 16 -15 -16 -19 -11 -19 33 0 51 21 58 18 18 -7 -42 -27
-27 -35 25 -13 20 8 39 13 42 10 3 -3 -13 -13 -36 -22 -56 -21 -44 -36 14 -16
25 8 48 12 51 9 4 -3 -1 -6 -10 -6 -9 0 -17 -4 -17 -9 0 -5 -6 -11 -12 -14
-18 -6 33 3 57 10 17 5 17 4 4 -9 -8 -8 -28 -20 -44 -26 l-30 -12 30 4 c17 2
39 7 50 11 18 8 19 7 6 -9 -13 -16 -13 -18 0 -16 7 1 21 2 29 1 13 -1 13 -2 0
-11 -13 -8 -12 -10 3 -10 10 0 15 -4 12 -10 -3 -5 0 -10 7 -10 8 0 40 -32 73
-70 49 -58 73 -77 142 -111 84 -41 136 -50 71 -12 -56 33 -206 169 -196 178 3
3 20 2 39 -2 l34 -7 -30 -7 c-25 -6 -22 -7 20 -8 41 -2 46 -4 28 -11 -13 -5
-23 -14 -23 -20 0 -12 17 -13 24 -1 5 8 66 21 66 14 0 -1 -15 -9 -32 -17 -34
-15 -24 -16 42 -1 16 3 11 -1 -12 -13 -43 -19 -52 -37 -12 -22 38 15 50 12 28
-6 -19 -15 -19 -16 1 -9 11 4 29 9 40 12 19 4 19 4 2 -10 -17 -14 -16 -15 7
-21 14 -3 44 0 68 8 29 11 46 12 54 5 9 -7 20 -7 35 1 17 10 19 14 8 21 -9 6
4 8 36 4 35 -3 45 -2 35 5 -13 8 -12 10 3 10 23 0 22 -27 -2 -35 -12 -4 -18
-14 -17 -29 0 -14 3 -23 5 -21 2 3 12 0 22 -6 11 -6 19 -6 19 0 0 5 -7 11 -15
15 -8 3 -15 11 -15 17 0 8 4 8 15 -1 11 -10 18 -10 29 -1 10 9 15 9 18 1 4
-13 131 -16 149 -4 8 4 9 3 5 -4 -4 -7 -2 -12 3 -12 6 0 11 6 11 13 0 6 5 4
11 -6 8 -14 14 -15 31 -6 16 8 22 8 29 -2 4 -7 6 -16 3 -20 -2 -4 6 -5 18 -1
20 5 21 6 3 12 -14 5 -15 9 -6 14 7 5 21 0 32 -10 18 -16 19 -16 13 -1 -5 13
1 18 26 23 25 5 31 11 27 26 -4 15 -1 18 15 12 11 -3 23 -2 27 3 3 6 20 13 36
17 22 5 26 4 15 -4 -11 -7 -5 -10 25 -11 22 0 34 -3 26 -6 -8 -3 1 -11 25 -19
21 -7 40 -11 43 -9 2 3 -1 5 -8 5 -7 0 -9 5 -6 10 3 6 -1 10 -10 10 -9 0 -14
4 -10 9 3 5 -3 12 -12 15 -10 3 -4 3 12 0 43 -8 105 -5 124 6 11 7 6 8 -19 5
-27 -4 -30 -3 -15 4 12 5 68 9 125 9 83 1 124 6 195 27 50 14 94 31 100 36 5
5 -16 1 -47 -10 -72 -25 -168 -37 -168 -22 0 6 19 14 43 18 l42 7 -35 7 -35 6
35 3 35 3 -40 7 -40 7 45 2 c25 1 56 4 70 8 l25 7 -25 6 c-21 6 -16 8 25 14
28 4 59 10 70 13 l20 6 -20 9 c-15 6 -12 7 13 3 17 -2 32 0 32 5 0 5 12 13 27
16 24 6 25 8 8 14 -15 5 -11 8 19 14 29 6 36 10 25 17 -11 7 -11 9 4 9 10 0
20 6 23 14 3 8 13 12 22 9 10 -3 13 -1 7 4 -19 16 -15 31 8 26 15 -3 18 -2 9
4 -9 7 -2 14 23 26 34 16 52 53 19 40 -13 -5 -13 -7 -2 -14 17 -11 -1 -10 -27
1 -18 8 -18 9 -2 9 11 1 15 5 11 13 -5 7 -2 9 7 6 8 -3 30 3 49 13 19 10 28
19 20 19 -8 1 -1 8 15 15 29 14 29 14 -20 10 l-50 -5 46 14 c45 13 92 35 76
36 -5 0 -18 -5 -30 -11 -19 -9 -19 -8 3 11 25 21 25 22 3 17 -13 -3 -23 -1
-23 4 0 5 7 9 15 9 23 0 65 22 59 31 -3 5 1 9 9 9 7 0 14 7 14 15 0 11 -4 12
-11 5 -5 -5 -15 -10 -21 -10 -17 1 28 30 47 30 11 0 15 5 12 15 -5 11 -11 12
-27 4 -15 -7 -12 -2 8 16 17 14 29 30 27 35 -1 6 2 10 6 10 5 0 17 7 28 15 16
13 13 13 -20 -1 -21 -8 -40 -13 -43 -10 -3 3 6 8 21 12 14 3 26 10 26 14 0 5
10 12 22 16 l22 7 -25 20 c-17 15 -19 18 -5 14 15 -6 17 -3 13 13 -6 23 19 54
38 47 6 -3 12 1 12 9 0 10 -7 12 -21 8 -21 -6 -21 -6 -1 10 11 8 14 16 8 16
-7 0 -13 5 -13 11 0 6 10 8 23 5 12 -3 16 -3 9 0 -10 5 -10 9 0 21 11 14 10
15 -12 9 -24 -7 -24 -7 3 11 16 10 27 27 27 40 0 12 5 25 10 28 6 4 7 11 4 17
-4 6 -1 14 7 18 10 7 10 11 0 24 -10 11 -10 16 -2 16 7 0 11 13 9 33 -1 18 2
38 6 45 4 7 2 12 -5 12 -8 0 -7 5 2 17 13 15 12 15 -11 4 -19 -10 -17 -6 10
18 23 21 31 34 23 37 -7 3 -13 14 -13 24 0 19 -1 19 -47 0 -27 -11 -40 -14
-29 -7 67 44 81 55 78 65 -1 7 3 12 9 12 8 0 8 4 0 14 -9 11 -9 15 1 19 10 4
10 8 -2 16 -13 10 -13 12 0 20 12 9 12 11 -3 17 -21 8 -22 24 -2 24 12 0 11 4
-5 20 -16 16 -30 19 -66 16 -49 -5 -94 7 -94 24 0 7 6 8 19 0 28 -14 169 -21
150 -6 -8 6 -16 22 -16 35 -3 32 -19 41 -57 30 -31 -9 -93 -5 -104 5 -14 14
10 17 44 4 25 -9 38 -10 41 -2 2 5 17 9 33 8 20 -1 30 3 30 12 0 8 -10 14 -22
15 -13 0 -32 4 -43 9 -14 6 -6 7 23 3 26 -3 42 -2 42 5 0 13 -16 19 -74 27
-25 4 -49 11 -52 16 -6 11 0 11 46 1 19 -5 46 -5 60 -2 l25 7 -30 7 c-16 4
-55 13 -85 21 -32 8 -56 10 -58 4 -2 -5 -11 -9 -20 -10 -11 0 -12 -2 -4 -6 6
-2 12 -9 12 -14 0 -11 -102 -59 -125 -59 -19 0 -127 -41 -122 -46 2 -2 23 3
47 11 24 8 55 17 69 20 24 4 83 26 121 44 8 4 19 17 25 29 13 29 23 28 23 -3
0 -14 -3 -23 -6 -20 -3 2 -11 -4 -19 -14 -7 -11 -35 -27 -63 -36 -27 -9 -53
-21 -56 -27 -8 -12 26 -3 76 22 35 17 60 17 60 -1 0 -5 -8 -9 -17 -9 -10 0
-31 -8 -48 -18 -26 -16 -122 -48 -135 -45 -3 1 -14 -4 -25 -10 -11 -6 -31 -13
-44 -14 -25 -2 -55 -23 -34 -23 22 0 239 71 261 86 21 14 25 14 41 -1 22 -19
54 -28 101 -28 34 1 34 1 8 -9 -17 -6 -40 -6 -63 1 -31 8 -40 7 -61 -12 -14
-12 -57 -32 -96 -44 -39 -12 -76 -27 -82 -33 -5 -5 -25 -10 -43 -10 -46 0 -41
-16 6 -18 27 -1 43 4 56 18 10 11 36 23 57 26 21 4 41 11 44 15 9 15 34 10 67
-15 18 -13 46 -28 62 -34 30 -10 30 -10 4 -11 -14 -1 -43 11 -64 25 l-39 26
-40 -21 c-24 -12 -33 -21 -23 -21 10 0 28 5 39 11 16 9 23 8 29 -2 5 -8 9 -10
9 -5 0 5 8 2 18 -6 9 -8 32 -21 50 -28 18 -7 35 -16 37 -21 8 -12 -53 8 -91
30 -31 18 -37 19 -68 6 -18 -8 -36 -11 -40 -8 -3 4 -6 1 -6 -5 0 -19 16 -21
44 -6 27 13 32 12 87 -18 33 -18 55 -34 49 -36 -5 -2 -32 9 -59 23 -39 22 -53
25 -69 16 -11 -6 -30 -11 -41 -11 -15 0 -19 -5 -15 -17 5 -17 5 -17 -9 0 -8 9
-24 17 -36 17 -11 0 -21 6 -21 13 0 9 -17 14 -56 16 -47 2 -56 -1 -61 -17 -3
-12 -28 -30 -64 -46 -67 -30 -84 -32 -75 -10 3 9 2 12 -5 9 -6 -4 -8 -13 -5
-21 3 -7 -3 -18 -12 -23 -16 -10 -16 -10 1 -11 9 0 17 4 17 8 0 5 14 9 32 10
17 0 34 4 37 9 13 17 78 40 121 42 24 1 49 6 55 10 11 10 55 -4 55 -16 0 -4
-33 -9 -73 -10 -55 -2 -85 -9 -122 -28 -28 -14 -55 -25 -62 -25 -27 0 -81 -33
-76 -46 3 -10 -6 -16 -27 -21 -19 -3 -35 -13 -37 -23 -6 -21 -84 -48 -130 -45
-18 1 -33 -2 -33 -7 0 -5 -11 -6 -25 -2 -27 7 -112 -13 -121 -27 -3 -5 10 -6
28 -2 18 3 34 10 36 14 2 4 9 6 17 3 14 -6 230 19 230 25 0 1 25 5 55 7 30 3
105 15 167 28 62 12 113 18 113 14 0 -4 -12 -10 -27 -14 -16 -3 -40 -10 -55
-16 -15 -5 -32 -7 -37 -3 -6 3 -11 1 -11 -6 0 -8 14 -9 48 -4 97 14 31 -4
-118 -34 -157 -30 -438 -67 -447 -58 -2 3 22 8 54 12 62 7 363 50 426 61 30 5
35 9 26 20 -8 10 -15 11 -24 4 -7 -6 -17 -10 -21 -9 -5 1 -27 -1 -49 -6 -22
-5 -49 -10 -60 -11 -11 -1 -22 -3 -25 -5 -3 -1 -9 -3 -15 -4 -5 0 -32 -5 -60
-9 -65 -11 -89 -14 -153 -21 -70 -6 -105 -16 -117 -31 -18 -22 -329 -41 -714
-43 -314 -1 -365 0 -375 13 -7 11 -31 16 -71 17 -33 1 -66 7 -74 13 -12 9 -13
7 -8 -12 5 -22 4 -23 -12 -8 -10 9 -25 16 -34 16 -9 0 -17 5 -17 10 0 6 15 10
33 10 l32 0 -42 20 c-45 20 -59 36 -20 24 19 -6 36 -8 100 -13 4 -1 7 -6 7
-12 0 -6 -9 -9 -20 -6 -11 3 -20 1 -20 -3 0 -8 129 -19 139 -13 10 7 -9 14
-43 15 -29 1 -42 8 -64 36 -54 69 -61 77 -62 65 0 -7 9 -22 20 -33 22 -22 26
-40 10 -40 -5 0 -10 5 -10 11 0 6 -7 8 -16 5 -17 -6 -93 58 -82 69 3 4 15 -2
26 -13 11 -11 18 -23 15 -26 -4 -3 4 -6 16 -6 22 0 22 0 -4 27 -27 29 -31 43
-15 43 6 0 5 8 -2 20 -7 11 -18 20 -25 20 -7 0 -17 9 -23 20 -8 15 -17 19 -35
14 -15 -4 -25 -2 -25 5 0 16 38 33 68 30 15 -2 37 1 50 5 17 6 27 3 37 -11 8
-10 15 -13 15 -7 0 21 -27 34 -64 30 -24 -4 -36 -1 -36 7 0 7 -4 6 -10 -3 -8
-12 -12 -13 -19 -2 -7 11 -9 10 -15 -3 -7 -19 -26 -11 -26 11 0 10 12 14 43
14 23 0 66 7 95 14 28 8 52 12 52 9 0 -3 6 -1 13 4 6 6 37 18 67 28 112 36
232 106 405 236 54 41 128 96 164 122 36 27 65 52 64 57 -1 4 5 7 15 6 11 -1
16 5 14 16 -2 12 2 16 11 12 8 -3 60 24 116 61 225 146 506 288 703 356 113
39 131 42 230 43 115 1 127 7 87 44 -54 51 -191 41 -404 -29 -102 -34 -470
-212 -515 -249 -16 -13 1 -8 43 14 39 20 75 32 84 29 12 -5 14 -3 8 8 -4 8 1
5 12 -6 16 -16 17 -22 6 -33 -7 -7 -18 -10 -24 -6 -7 4 -9 3 -5 -4 3 -6 -26
-30 -71 -59 -43 -26 -92 -57 -110 -68 -122 -77 -154 -96 -161 -91 -4 3 -27 -6
-51 -20 -24 -13 -50 -24 -58 -24 -8 0 -11 -5 -7 -12 4 -7 3 -10 -1 -5 -5 4
-15 1 -24 -7 -17 -15 -71 -32 -71 -23 0 12 110 78 120 72 5 -3 8 0 5 7 -2 7
10 22 28 34 76 49 233 158 242 167 16 16 -82 -41 -165 -96 -77 -51 -304 -214
-420 -300 -74 -56 -165 -103 -260 -136 -36 -13 -74 -27 -85 -31 -38 -16 -70
-19 -107 -11 -24 6 -38 5 -41 -2 -6 -20 -27 4 -27 33 0 23 3 27 20 23 11 -3
20 -10 20 -15 0 -6 -7 -8 -15 -4 -8 3 -15 1 -15 -4 0 -11 11 -13 34 -4 23 9
20 23 -9 34 -20 8 -25 16 -25 45 0 27 4 35 18 35 11 0 13 3 5 8 -9 6 -8 24 2
77 45 236 139 464 274 660 162 238 307 357 531 438 43 16 -23 4 -91 -17z
m-1059 -826 c0 -5 7 -10 15 -10 8 0 15 -5 15 -11 0 -6 -9 -9 -19 -6 -13 3 -22
-3 -30 -20 -14 -30 -14 -34 0 -30 6 1 13 -3 16 -10 3 -7 -3 -10 -16 -6 -15 4
-20 12 -18 34 1 16 8 31 15 34 6 2 12 9 12 15 0 6 -5 8 -12 4 -7 -4 -8 -3 -4
4 9 15 26 16 26 2z m10 -61 c0 -6 -4 -7 -10 -4 -5 3 -10 11 -10 16 0 6 5 7 10
4 6 -3 10 -11 10 -16z m43 -96 c16 -5 25 -33 10 -33 -15 1 -43 27 -36 34 4 4
-3 9 -15 13 -12 3 -22 10 -22 15 0 6 10 3 23 -6 12 -9 30 -19 40 -23z m75
-153 c16 -16 34 -30 40 -30 6 0 13 -6 16 -12 5 -10 7 -10 12 -1 7 15 44 -5 44
-24 0 -15 -26 -17 -35 -3 -8 13 -25 13 -25 0 0 -6 14 -13 30 -17 17 -3 29 -10
27 -16 -4 -13 -35 -18 -43 -6 -3 5 -10 7 -15 4 -5 -4 -9 -2 -9 3 0 6 -10 13
-22 16 -21 5 -98 70 -98 81 0 12 20 2 51 -25 49 -44 69 -54 69 -35 0 8 -4 15
-10 15 -5 0 -23 14 -38 30 -21 21 -39 30 -63 31 -28 0 -31 2 -14 9 35 15 54
11 83 -20z m-96 -20 c2 -5 28 -30 58 -55 38 -31 67 -46 97 -51 33 -5 43 -11
43 -25 0 -24 -2 -24 -53 2 -79 40 -167 109 -167 131 0 11 18 10 22 -2z m2588
-35 c16 -19 0 -19 -26 0 -16 12 -16 14 -3 15 9 0 22 -7 29 -15z m35 -15 c3 -5
1 -10 -4 -10 -6 0 -11 5 -11 10 0 6 2 10 4 10 3 0 8 -4 11 -10z m-65 -110 c0
-6 20 -15 45 -22 42 -11 61 -28 33 -28 -22 0 -109 46 -101 53 10 10 23 8 23
-3z m-2203 -6 c-3 -3 -12 -4 -19 -1 -8 3 -5 6 6 6 11 1 17 -2 13 -5z m-44 -11
c-7 -2 -21 -2 -30 0 -10 3 -4 5 12 5 17 0 24 -2 18 -5z m2390 -20 c-7 -2 -21
-2 -30 0 -10 3 -4 5 12 5 17 0 24 -2 18 -5z m-2533 -53 c20 -6 21 -8 5 -8 -11
0 -31 4 -45 8 -20 6 -21 8 -5 8 11 0 31 -4 45 -8z m-130 -15 c14 -8 19 -14 10
-14 -8 0 -24 6 -34 14 -25 19 -9 19 24 0z m85 -5 c3 -6 -1 -7 -9 -4 -18 7 -21
14 -7 14 6 0 13 -4 16 -10z m65 -9 c0 -19 -22 -23 -38 -7 -15 15 -14 16 11 16
15 0 27 -4 27 -9z m2150 -5 c0 -7 -19 -12 -45 -12 -28 -1 -45 3 -45 10 0 7 17
12 45 12 27 1 45 -4 45 -10z m-2215 -16 c3 -5 1 -10 -4 -10 -6 0 -11 5 -11 10
0 6 2 10 4 10 3 0 8 -4 11 -10z m2401 -6 c18 -15 18 -15 -5 -10 -25 5 -131
-33 -131 -47 0 -10 31 -2 77 19 17 8 38 11 47 8 23 -9 20 -23 -4 -17 -11 3
-32 -2 -46 -12 -14 -9 -28 -14 -31 -11 -3 3 -14 1 -25 -5 -15 -8 -22 -7 -32 6
-10 14 -22 16 -59 12 -59 -7 -127 -28 -127 -39 0 -10 14 -11 23 -1 4 3 17 7
30 9 12 1 43 5 70 9 29 4 47 3 47 -3 0 -5 -26 -12 -57 -16 -76 -8 -86 -10
-102 -20 -7 -5 -16 -5 -20 0 -8 11 -41 14 -41 4 0 -4 -11 -11 -25 -14 -16 -4
-25 -13 -25 -26 0 -15 -7 -20 -24 -20 -14 0 -28 -5 -31 -10 -4 -6 -11 -8 -16
-4 -14 8 10 35 29 32 9 -2 22 8 29 22 7 14 16 25 20 26 26 2 93 26 93 33 0 8
48 24 80 26 8 0 20 3 25 7 6 3 29 5 52 5 24 0 46 2 50 6 3 4 15 7 25 7 10 0
18 4 18 9 0 5 12 14 28 19 37 14 36 14 58 -4z m-2346 -20 c0 -8 -4 -12 -10 -9
-5 3 -10 10 -10 16 0 5 5 9 10 9 6 0 10 -7 10 -16z m-30 -4 c0 -5 -2 -10 -4
-10 -3 0 -8 5 -11 10 -3 6 -1 10 4 10 6 0 11 -4 11 -10z m2561 -4 c-11 -13
-51 -29 -51 -20 0 3 51 33 59 34 2 0 -2 -6 -8 -14z m-2585 -23 c10 -15 15 -16
25 -5 21 20 29 14 27 -19 -2 -32 -13 -46 -22 -30 -4 5 -2 12 4 16 17 11 11 27
-8 21 -12 -4 -26 1 -37 14 -10 11 -15 20 -10 20 4 0 14 -8 21 -17z m2477 10
c-7 -2 -19 -2 -25 0 -7 3 -2 5 12 5 14 0 19 -2 13 -5z m-38 -56 l30 -4 -30 -2
c-17 0 -35 -5 -41 -11 -5 -5 -32 -14 -59 -20 -53 -11 -122 -21 -92 -13 9 2 17
9 17 14 0 6 4 8 9 4 5 -3 12 -1 16 5 8 13 -16 13 -49 0 -17 -6 -26 -6 -26 0 0
5 12 12 28 16 78 17 101 25 112 39 12 14 15 13 34 -4 12 -11 35 -21 51 -24z
m-5 33 c0 -5 -4 -10 -10 -10 -5 0 -10 5 -10 10 0 6 5 10 10 10 6 0 10 -4 10
-10z m76 -5 c-11 -8 -27 -15 -35 -15 -10 1 -7 6 9 15 33 19 50 18 26 0z
m-2316 -16 c0 -5 7 -9 15 -9 8 0 15 -7 15 -16 0 -11 -5 -14 -16 -10 -11 4 -15
2 -11 -8 5 -12 -2 -14 -30 -12 -37 2 -60 24 -26 23 35 0 44 3 38 13 -3 6 -17
8 -31 6 -30 -6 -32 12 -1 23 24 9 47 4 47 -10z m-180 -31 c0 -5 7 -8 15 -8 8
0 15 -5 15 -10 0 -7 -7 -7 -21 1 -17 9 -23 8 -30 -2 -4 -7 -11 -10 -16 -6 -4
5 -1 13 7 18 11 8 12 12 3 16 -7 2 -13 9 -13 14 0 5 9 4 20 -3 11 -7 20 -16
20 -20z m-50 2 c0 -5 -4 -10 -10 -10 -5 0 -10 5 -10 10 0 6 5 10 10 10 6 0 10
-4 10 -10z m2230 -10 c0 -5 -11 -10 -24 -10 -14 0 -28 -4 -31 -10 -8 -12 -65
-13 -65 -1 0 7 37 16 113 30 4 0 7 -3 7 -9z m255 0 c-11 -5 -27 -9 -35 -9 -9
0 -8 4 5 9 11 5 27 9 35 9 9 0 8 -4 -5 -9z m-385 -24 c0 -6 -8 -12 -17 -12
-10 -1 -30 -4 -45 -9 -34 -9 -38 8 -5 22 30 14 67 13 67 -1z m290 0 c0 -8
-111 -37 -123 -33 -7 2 15 11 48 19 70 19 75 19 75 14z m-2311 -22 c13 -12 -8
-10 -29 2 l-25 15 25 -7 c14 -3 27 -8 29 -10z m151 1 c0 -8 -4 -15 -10 -15 -5
0 -10 6 -10 13 0 8 -3 8 -9 -2 -6 -9 -15 -11 -27 -6 -17 7 -16 9 6 15 39 12
50 11 50 -5z m2017 -21 c-3 -3 -12 -4 -19 -1 -8 3 -5 6 6 6 11 1 17 -2 13 -5z
m-2192 -14 c3 -5 1 -10 -4 -10 -6 0 -11 5 -11 10 0 6 2 10 4 10 3 0 8 -4 11
-10z m205 -1 c0 -6 -7 -9 -15 -6 -8 4 -17 2 -20 -4 -4 -5 -11 -7 -16 -4 -17
11 -9 20 21 22 17 1 30 -3 30 -8z m-70 -19 c0 -5 -4 -10 -9 -10 -6 0 -13 5
-16 10 -3 6 1 10 9 10 9 0 16 -4 16 -10z m60 -18 c0 -10 -36 -9 -46 1 -4 4 5
7 19 7 15 0 27 -4 27 -8z m-170 -18 c0 -7 -8 -10 -20 -7 -11 3 -20 9 -20 14 0
4 9 7 20 6 11 -1 20 -7 20 -13z m138 -4 c6 0 12 -4 12 -10 0 -11 -30 -13 -54
-4 -25 9 -19 27 7 20 12 -3 28 -6 35 -6z m2199 4 c-3 -3 -12 -4 -19 -1 -8 3
-5 6 6 6 11 1 17 -2 13 -5z m-2149 -15 c-2 -6 -8 -10 -13 -10 -5 0 -11 4 -13
10 -2 6 4 11 13 11 9 0 15 -5 13 -11z m2112 7 c0 -2 -7 -6 -15 -10 -8 -3 -15
-1 -15 4 0 6 7 10 15 10 8 0 15 -2 15 -4z m-46 -16 c-5 -5 -32 -14 -59 -20
-77 -15 -90 -18 -131 -29 -49 -14 -64 -14 -64 -1 0 6 8 10 18 10 9 0 60 11
112 25 104 26 140 31 124 15z m-2261 -7 c-7 -2 -19 -2 -25 0 -7 3 -2 5 12 5
14 0 19 -2 13 -5z m160 -20 c-7 -2 -19 -2 -25 0 -7 3 -2 5 12 5 14 0 19 -2 13
-5z m215 -10 c-15 -2 -42 -2 -60 0 -18 2 -6 4 27 4 33 0 48 -2 33 -4z m1847
-3 c-3 -5 -14 -10 -23 -9 -14 0 -13 2 3 9 27 11 27 11 20 0z m-235 -21 c0 -6
-7 -9 -15 -6 -8 4 -17 2 -20 -4 -4 -5 -11 -6 -17 -3 -6 4 -5 10 3 15 20 12 49
11 49 -2z m-70 -9 c0 -14 -24 -23 -47 -17 -15 3 -14 6 7 15 32 14 40 14 40 2z
m190 0 c0 -11 -61 -29 -74 -22 -6 3 8 11 30 18 21 6 40 12 42 13 1 1 2 -3 2
-9z m-1179 -19 c-13 -10 -21 -23 -17 -30 10 -16 -85 -14 -108 2 -17 12 -15 14
15 14 19 0 37 -5 41 -11 5 -7 8 -4 8 7 0 13 -8 17 -35 17 -19 0 -35 5 -35 10
0 6 32 10 78 10 77 0 77 0 53 -19z m756 3 c-3 -3 -12 -4 -19 -1 -8 3 -5 6 6 6
11 1 17 -2 13 -5z m162 2 c-6 -6 -119 -26 -184 -33 -63 -6 -90 -10 -90 -12 0
-1 -25 -4 -55 -7 -30 -2 -65 -7 -77 -9 -13 -3 -23 -1 -23 5 0 10 23 17 80 24
19 2 -12 2 -70 1 l-105 -4 100 11 c66 7 105 7 115 0 9 -5 28 -8 41 -5 93 17
277 37 268 29z m-241 -13 c-10 -2 -26 -2 -35 0 -10 3 -2 5 17 5 19 0 27 -2 18
-5z m367 -3 c3 -5 1 -10 -4 -10 -6 0 -11 5 -11 10 0 6 2 10 4 10 3 0 8 -4 11
-10z m-105 -10 c0 -5 -4 -10 -10 -10 -5 0 -10 5 -10 10 0 6 5 10 10 10 6 0 10
-4 10 -10z m260 -10 c0 -5 -7 -7 -15 -4 -8 4 -15 8 -15 10 0 2 7 4 15 4 8 0
15 -4 15 -10z m-810 -8 c0 -4 20 -6 45 -4 28 3 45 0 45 -7 0 -6 -19 -12 -42
-13 -24 -1 -56 -3 -73 -5 -126 -15 -595 -20 -805 -8 -80 4 -167 9 -194 10 -30
1 -52 7 -54 14 -3 9 5 11 29 6 58 -11 738 -18 895 -9 115 6 138 10 99 15 l-50
6 53 1 c28 1 52 -1 52 -6z m405 -2 c3 -5 -1 -10 -9 -10 -9 0 -16 5 -16 10 0 6
4 10 9 10 6 0 13 -4 16 -10z m35 -5 c-7 -9 -15 -13 -19 -10 -3 3 1 10 9 15 21
14 24 12 10 -5z m404 9 c23 -9 20 -23 -4 -17 -11 3 -20 9 -20 14 0 11 3 11 24
3z m-2004 -14 c0 -5 -2 -10 -4 -10 -3 0 -8 5 -11 10 -3 6 -1 10 4 10 6 0 11
-4 11 -10z m40 0 c0 -5 -4 -10 -10 -10 -5 0 -10 5 -10 10 0 6 5 10 10 10 6 0
10 -4 10 -10z m30 6 c0 -3 -4 -8 -10 -11 -5 -3 -10 -1 -10 4 0 6 5 11 10 11 6
0 10 -2 10 -4z m1730 -6 c0 -5 -15 -10 -32 -9 -31 1 -32 1 -8 9 35 11 40 11
40 0z m-270 -11 c0 -10 -75 -20 -78 -9 -2 5 -10 6 -18 3 -8 -3 -14 -1 -14 4 0
5 25 9 55 9 30 0 55 -3 55 -7z m110 1 c0 -5 -7 -10 -16 -10 -8 0 -12 5 -9 10
3 6 10 10 16 10 5 0 9 -4 9 -10z m37 4 c-3 -3 -12 -4 -19 -1 -8 3 -5 6 6 6 11
1 17 -2 13 -5z m43 -4 c0 -5 -4 -10 -10 -10 -5 0 -10 5 -10 10 0 6 5 10 10 10
6 0 10 -4 10 -10z m140 -6 c0 -2 -11 -4 -25 -4 -14 0 -25 4 -25 9 0 4 11 6 25
3 14 -2 25 -6 25 -8z m-460 -2 c0 -4 14 -13 31 -21 29 -12 48 -12 114 5 19 5
26 3 21 -4 -3 -6 -32 -16 -63 -23 -32 -6 -64 -14 -73 -17 -13 -5 -13 -3 -1 11
11 15 11 17 -2 17 -8 0 -17 -7 -21 -15 -3 -8 -12 -15 -21 -15 -19 0 -20 16 0
24 8 3 15 10 15 15 0 14 -113 7 -118 -7 -4 -14 -55 -16 -99 -3 -20 6 -35 6
-38 0 -4 -5 -23 -9 -43 -9 -28 0 -33 -3 -22 -10 8 -6 36 -8 61 -4 29 3 49 1
54 -5 3 -6 17 -8 31 -5 14 4 24 2 24 -5 0 -6 -4 -11 -9 -11 -5 0 -23 -3 -40
-6 -26 -5 -30 -4 -25 9 4 12 1 14 -15 10 -12 -3 -17 -11 -14 -19 3 -8 0 -14
-6 -14 -6 0 -11 5 -11 10 0 6 -7 10 -16 10 -9 0 -31 7 -49 16 -19 8 -44 14
-57 12 -22 -4 -22 -5 -3 -12 11 -4 34 -14 50 -21 61 -29 81 -33 134 -24 50 8
118 2 107 -9 -10 -9 -172 -10 -210 0 -25 6 -41 6 -45 0 -8 -12 -61 -13 -61 -1
0 5 -9 9 -20 9 -11 0 -20 -5 -20 -11 0 -12 -17 -29 -48 -46 -25 -15 -92 -17
-92 -4 0 4 18 8 39 8 32 0 47 8 78 37 23 21 44 34 53 30 34 -13 70 -16 70 -6
0 6 -18 13 -40 17 -40 7 -51 19 -27 28 6 3 -10 6 -36 6 -30 1 -46 -3 -42 -9 3
-6 17 -7 31 -4 14 4 24 2 24 -5 0 -6 -13 -11 -29 -11 -16 0 -43 -3 -60 -6 -20
-4 -31 -3 -31 5 0 6 9 11 19 11 11 0 23 5 26 10 9 14 -26 12 -74 -5 -36 -12
-41 -12 -41 1 0 12 -25 14 -152 14 -149 -1 -298 4 -308 9 -4 3 -38 5 -142 10
-16 0 -28 5 -28 11 0 9 146 4 161 -6 11 -6 467 -6 478 0 6 4 15 4 21 1 11 -7
136 -6 240 1 36 2 101 6 145 8 44 3 100 9 125 13 57 12 100 14 100 5z m-1400
-28 c0 -8 -5 -12 -10 -9 -6 4 -8 11 -5 16 9 14 15 11 15 -7z m40 6 c0 -5 -2
-10 -4 -10 -3 0 -8 5 -11 10 -3 6 -1 10 4 10 6 0 11 -4 11 -10z m40 -10 c0 -5
-7 -7 -15 -4 -8 4 -12 10 -9 15 6 11 24 2 24 -11z m34 -1 c-3 -5 -10 -7 -15
-3 -5 3 -7 10 -3 15 3 5 10 7 15 3 5 -3 7 -10 3 -15z m1491 11 c-3 -5 -10 -10
-16 -10 -5 0 -9 5 -9 10 0 6 7 10 16 10 8 0 12 -4 9 -10z m50 0 c-3 -5 -12
-10 -18 -10 -7 0 -6 4 3 10 19 12 23 12 15 0z m35 0 c0 -5 -4 -10 -10 -10 -5
0 -10 5 -10 10 0 6 5 10 10 10 6 0 10 -4 10 -10z m103 -7 c-7 -2 -21 -2 -30 0
-10 3 -4 5 12 5 17 0 24 -2 18 -5z m-436 -17 c-2 -5 -15 -10 -30 -12 -15 -1
-34 -10 -43 -18 -19 -20 -24 -20 -24 -1 0 8 5 15 11 15 6 0 16 6 23 13 14 14
68 17 63 3z m223 -6 c0 -11 -50 -34 -57 -26 -3 2 8 11 24 20 34 19 33 18 33 6z
m-1510 -10 c0 -5 -4 -10 -10 -10 -5 0 -10 5 -10 10 0 6 5 10 10 10 6 0 10 -4
10 -10z m75 0 c3 -5 -1 -10 -9 -10 -9 0 -16 5 -16 10 0 6 4 10 9 10 6 0 13 -4
16 -10z m230 -11 c12 -12 -86 -12 -119 1 -14 5 -28 6 -30 1 -7 -11 -66 -1 -66
12 0 12 201 0 215 -14z m1245 11 c0 -5 -4 -10 -9 -10 -6 0 -13 5 -16 10 -3 6
1 10 9 10 9 0 16 -4 16 -10z m47 4 c-3 -3 -12 -4 -19 -1 -8 3 -5 6 6 6 11 1
17 -2 13 -5z m38 -4 c-3 -5 -11 -10 -16 -10 -6 0 -7 5 -4 10 3 6 11 10 16 10
6 0 7 -4 4 -10z m-1600 -10 c3 -5 2 -10 -4 -10 -5 0 -13 5 -16 10 -3 6 -2 10
4 10 5 0 13 -4 16 -10z m450 -5 c33 2 85 4 115 6 30 1 65 -3 78 -10 12 -6 34
-10 48 -9 15 2 29 -3 31 -9 3 -9 -9 -13 -40 -13 -25 0 -47 5 -49 10 -3 9 -63
11 -228 8 -25 -1 -58 2 -75 5 -16 3 -34 6 -38 6 -5 1 -6 5 -3 10 3 4 27 5 53
1 26 -5 75 -7 108 -5z m945 5 c0 -5 -5 -10 -11 -10 -5 0 -7 5 -4 10 3 6 8 10
11 10 2 0 4 -4 4 -10z m-120 -11 c0 -7 -72 -19 -79 -13 -1 1 -1 7 2 11 7 11
77 12 77 2z m35 1 c-3 -5 -11 -10 -16 -10 -6 0 -7 5 -4 10 3 6 11 10 16 10 6
0 7 -4 4 -10z m50 0 c-3 -5 -11 -10 -16 -10 -6 0 -7 5 -4 10 3 6 11 10 16 10
6 0 7 -4 4 -10z m-1175 -32 c0 -11 -4 -10 -35 4 -35 16 -31 29 5 15 17 -6 30
-15 30 -19z m-155 12 c3 -5 -1 -10 -10 -10 -9 0 -13 5 -10 10 3 6 8 10 10 10
2 0 7 -4 10 -10z m60 0 c17 -7 15 -9 -12 -9 -18 -1 -33 4 -33 9 0 12 17 12 45
0z m171 -3 c4 -4 -5 -7 -19 -7 -15 0 -30 0 -34 -1 -4 0 -9 4 -11 9 -3 11 53
10 64 -1z m132 -13 c5 3 14 1 22 -5 10 -6 1 -8 -30 -8 -61 2 -103 12 -107 26
-3 8 11 7 52 -3 30 -8 59 -13 63 -10z m422 16 c0 -5 -6 -10 -14 -10 -8 0 -16
-4 -18 -9 -5 -13 -68 -25 -68 -12 0 6 8 11 18 11 9 1 28 7 42 15 30 17 40 18
40 5z m675 0 c-3 -5 -10 -10 -16 -10 -5 0 -9 5 -9 10 0 6 7 10 16 10 8 0 12
-4 9 -10z m45 6 c0 -3 -4 -8 -10 -11 -5 -3 -10 -1 -10 4 0 6 5 11 10 11 6 0
10 -2 10 -4z m37 -2 c-3 -3 -12 -4 -19 -1 -8 3 -5 6 6 6 11 1 17 -2 13 -5z
m-1587 -14 c0 -5 -2 -10 -4 -10 -3 0 -8 5 -11 10 -3 6 -1 10 4 10 6 0 11 -4
11 -10z m655 -10 c8 -6 23 -9 35 -5 11 3 20 2 20 -3 0 -17 -63 -24 -72 -9 -6
11 -30 14 -98 12 -49 -1 -90 1 -90 6 0 18 182 18 205 -1z m690 10 c-3 -5 -11
-10 -16 -10 -6 0 -7 5 -4 10 3 6 11 10 16 10 6 0 7 -4 4 -10z m40 0 c-3 -5
-12 -10 -18 -10 -7 0 -6 4 3 10 19 12 23 12 15 0z m84 6 c-11 -9 -69 -15 -64
-6 3 6 20 10 37 10 17 0 29 -2 27 -4z m-175 -15 c-9 -9 -64 -9 -64 0 0 5 16 8
35 7 19 -1 33 -4 29 -7z m566 0 c0 -5 -11 -8 -24 -7 -13 0 -22 4 -19 9 6 10
43 9 43 -2z m-1675 -23 c7 -7 1 -8 -20 -4 -16 4 -34 12 -40 18 -7 7 -1 8 20 4
17 -4 35 -12 40 -18z m1415 12 c0 -5 -5 -10 -11 -10 -5 0 -7 5 -4 10 3 6 8 10
11 10 2 0 4 -4 4 -10z m-1490 -10 c0 -5 -11 -10 -24 -10 -14 0 -28 5 -31 10
-4 6 7 10 24 10 17 0 31 -4 31 -10z m190 2 c0 -5 -22 -8 -50 -9 -27 0 -50 4
-50 8 0 5 23 9 50 9 28 0 50 -4 50 -8z m1260 0 c0 -4 -22 -8 -50 -8 -27 0 -47
2 -45 6 6 10 95 12 95 2z m-1145 -24 c7 -7 -2 -9 -30 -4 -22 3 -48 6 -57 6
-10 0 -18 4 -18 9 0 12 92 3 105 -11z m150 12 c25 -7 22 -8 -20 -8 -27 1 -65
-2 -82 -6 -21 -5 -33 -4 -33 3 0 17 84 24 135 11z m60 0 c-3 -5 -10 -10 -16
-10 -5 0 -9 5 -9 10 0 6 7 10 16 10 8 0 12 -4 9 -10z m285 0 c21 -7 18 -8 -18
-9 -26 -1 -41 3 -37 9 7 11 19 11 55 0z m110 -1 c0 -4 -15 -7 -34 -6 -19 0
-33 4 -30 8 6 10 64 8 64 -2z m85 1 c3 -5 -1 -10 -10 -10 -9 0 -13 5 -10 10 3
6 8 10 10 10 2 0 7 -4 10 -10z m135 0 c3 0 0 -4 -7 -8 -14 -9 -115 -3 -108 7
3 6 80 7 115 1z m35 0 c-3 -5 -11 -10 -16 -10 -6 0 -7 5 -4 10 3 6 11 10 16
10 6 0 7 -4 4 -10z m50 0 c-3 -5 -14 -10 -23 -10 -15 0 -15 2 -2 10 20 13 33
13 25 0z m82 4 c-3 -3 -12 -4 -19 -1 -8 3 -5 6 6 6 11 1 17 -2 13 -5z m40 0
c-3 -3 -12 -4 -19 -1 -8 3 -5 6 6 6 11 1 17 -2 13 -5z m-387 -14 c-19 -13 -30
-13 -30 0 0 6 10 10 23 10 18 0 19 -2 7 -10z m-920 -4 c0 -11 -19 -15 -25 -6
-3 5 1 10 9 10 9 0 16 -2 16 -4z m183 -15 c52 -13 58 -21 14 -21 -20 0 -37 5
-37 11 0 6 -12 10 -27 9 -39 -3 -45 -1 -39 9 6 9 29 7 89 -8z m371 10 c6 -9
-40 -21 -80 -21 -39 0 -27 18 14 23 20 2 42 4 49 5 6 1 14 -2 17 -7z m-604
-11 c0 -5 -2 -10 -4 -10 -3 0 -8 5 -11 10 -3 6 -1 10 4 10 6 0 11 -4 11 -10z
m125 0 c7 -11 -9 -11 -45 0 -24 8 -24 8 7 9 17 1 35 -3 38 -9z m630 0 c3 -5
-3 -10 -15 -10 -12 0 -18 5 -15 10 3 6 10 10 15 10 5 0 12 -4 15 -10z m145 0
c0 -5 -17 -9 -37 -9 -38 1 -38 1 -8 9 43 11 45 11 45 0z m345 0 c-3 -5 -11
-10 -16 -10 -6 0 -7 5 -4 10 3 6 11 10 16 10 6 0 7 -4 4 -10z m115 0 c0 -5 -5
-10 -11 -10 -5 0 -7 5 -4 10 3 6 8 10 11 10 2 0 4 -4 4 -10z m80 0 c0 -5 -4
-10 -10 -10 -5 0 -10 5 -10 10 0 6 5 10 10 10 6 0 10 -4 10 -10z m-1085 -10
c4 -6 -9 -10 -32 -9 -34 1 -35 2 -13 9 35 11 38 11 45 0z m45 0 c0 -5 -4 -10
-9 -10 -6 0 -13 5 -16 10 -3 6 1 10 9 10 9 0 16 -4 16 -10z m85 -6 c22 -14 96
-18 119 -6 16 9 66 10 66 2 0 -21 -177 -30 -190 -10 -4 7 -20 13 -34 13 -15 0
-29 3 -32 8 -9 15 45 10 71 -7z m315 6 c0 -5 -4 -10 -9 -10 -6 0 -13 5 -16 10
-3 6 1 10 9 10 9 0 16 -4 16 -10z m140 0 c0 -5 -7 -10 -15 -10 -8 0 -15 5 -15
10 0 6 7 10 15 10 8 0 15 -4 15 -10z m86 3 c-11 -11 -67 -12 -60 -2 3 5 19 9
36 9 17 0 28 -3 24 -7z m84 -4 c0 -5 -16 -9 -36 -9 -19 0 -33 4 -30 8 7 12 66
13 66 1z m90 1 c0 -6 -11 -8 -27 -4 -40 10 -41 14 -5 14 18 0 32 -5 32 -10z
m-1170 -10 c0 -5 -4 -10 -10 -10 -5 0 -10 5 -10 10 0 6 5 10 10 10 6 0 10 -4
10 -10z m79 -16 c2 -2 -12 -4 -32 -4 -20 0 -37 4 -37 10 0 8 58 3 69 -6z m36
6 c3 -5 -1 -10 -10 -10 -9 0 -13 5 -10 10 3 6 8 10 10 10 2 0 7 -4 10 -10z
m45 0 c0 -5 -4 -10 -9 -10 -6 0 -13 5 -16 10 -3 6 1 10 9 10 9 0 16 -4 16 -10z
m530 0 c0 -5 -4 -10 -9 -10 -6 0 -13 5 -16 10 -3 6 1 10 9 10 9 0 16 -4 16
-10z m-340 -10 c0 -5 -4 -10 -10 -10 -5 0 -10 5 -10 10 0 6 5 10 10 10 6 0 10
-4 10 -10z m103 -12 c10 -5 16 -12 14 -15 -7 -6 -78 17 -92 30 -12 11 52 -1
78 -15z m290 15 c-7 -2 -19 -2 -25 0 -7 3 -2 5 12 5 14 0 19 -2 13 -5z m47 -3
c0 -5 -7 -10 -16 -10 -8 0 -12 5 -9 10 3 6 10 10 16 10 5 0 9 -4 9 -10z m45 0
c-3 -5 -10 -10 -16 -10 -5 0 -9 5 -9 10 0 6 7 10 16 10 8 0 12 -4 9 -10z m45
0 c0 -5 -7 -10 -16 -10 -8 0 -12 5 -9 10 3 6 10 10 16 10 5 0 9 -4 9 -10z
m-900 -10 c0 -5 -2 -10 -4 -10 -3 0 -8 5 -11 10 -3 6 -1 10 4 10 6 0 11 -4 11
-10z m217 4 c-3 -3 -12 -4 -19 -1 -8 3 -5 6 6 6 11 1 17 -2 13 -5z m33 -4 c0
-5 -4 -10 -10 -10 -5 0 -10 5 -10 10 0 6 5 10 10 10 6 0 10 -4 10 -10z m80 0
c0 -5 -14 -7 -31 -5 -45 6 -49 15 -6 15 21 0 37 -4 37 -10z m617 4 c-3 -3 -12
-4 -19 -1 -8 3 -5 6 6 6 11 1 17 -2 13 -5z m40 0 c-3 -3 -12 -4 -19 -1 -8 3
-5 6 6 6 11 1 17 -2 13 -5z m40 0 c-3 -3 -12 -4 -19 -1 -8 3 -5 6 6 6 11 1 17
-2 13 -5z m53 -4 c0 -5 -7 -10 -15 -10 -8 0 -15 5 -15 10 0 6 7 10 15 10 8 0
15 -4 15 -10z m87 4 c-3 -3 -12 -4 -19 -1 -8 3 -5 6 6 6 11 1 17 -2 13 -5z
m-477 -13 c0 -4 -37 -12 -82 -17 -46 -6 -87 -12 -93 -15 -5 -2 -11 0 -13 5 -1
5 12 11 30 13 18 2 46 7 62 11 38 10 96 12 96 3z m-560 -5 c0 -11 -19 -15 -25
-6 -3 5 1 10 9 10 9 0 16 -2 16 -4z m37 -2 c-3 -3 -12 -4 -19 -1 -8 3 -5 6 6
6 11 1 17 -2 13 -5z m568 -4 c3 -5 -1 -10 -9 -10 -9 0 -16 5 -16 10 0 6 4 10
9 10 6 0 13 -4 16 -10z m40 0 c-3 -5 -10 -10 -16 -10 -5 0 -9 5 -9 10 0 6 7
10 16 10 8 0 12 -4 9 -10z m45 0 c0 -5 -5 -10 -11 -10 -5 0 -7 5 -4 10 3 6 8
10 11 10 2 0 4 -4 4 -10z m-743 -6 c-3 -3 -12 -4 -19 -1 -8 3 -5 6 6 6 11 1
17 -2 13 -5z m239 -7 c4 -3 -25 -6 -65 -5 -39 1 -71 5 -71 9 0 9 127 6 136 -4z
m124 3 c0 -6 -19 -7 -47 -4 -65 8 -67 14 -5 14 29 0 52 -4 52 -10z m427 4 c-3
-3 -12 -4 -19 -1 -8 3 -5 6 6 6 11 1 17 -2 13 -5z m50 0 c-3 -3 -12 -4 -19 -1
-8 3 -5 6 6 6 11 1 17 -2 13 -5z m43 2 c0 -11 -19 -15 -25 -6 -3 5 1 10 9 10
9 0 16 -2 16 -4z m40 -6 c0 -5 -4 -10 -10 -10 -5 0 -10 5 -10 10 0 6 5 10 10
10 6 0 10 -4 10 -10z m45 0 c3 -5 -1 -10 -10 -10 -9 0 -13 5 -10 10 3 6 8 10
10 10 2 0 7 -4 10 -10z m55 0 c0 -5 -4 -10 -10 -10 -5 0 -10 5 -10 10 0 6 5
10 10 10 6 0 10 -4 10 -10z m-950 -20 c0 -5 -4 -10 -10 -10 -5 0 -10 5 -10 10
0 6 5 10 10 10 6 0 10 -4 10 -10z m325 0 c-3 -5 -10 -10 -16 -10 -5 0 -9 5 -9
10 0 6 7 10 16 10 8 0 12 -4 9 -10z m145 0 c0 -5 -4 -10 -10 -10 -5 0 -10 5
-10 10 0 6 5 10 10 10 6 0 10 -4 10 -10z m45 0 c-3 -5 -10 -10 -16 -10 -5 0
-9 5 -9 10 0 6 7 10 16 10 8 0 12 -4 9 -10z m40 0 c-3 -5 -10 -10 -16 -10 -5
0 -9 5 -9 10 0 6 7 10 16 10 8 0 12 -4 9 -10z m65 -11 c-19 -4 -39 -4 -45 -1
-12 8 56 20 70 13 5 -3 -6 -8 -25 -12z m-710 1 c0 -5 -2 -10 -4 -10 -3 0 -8 5
-11 10 -3 6 -1 10 4 10 6 0 11 -4 11 -10z m285 0 c3 -5 -1 -10 -9 -10 -9 0
-16 5 -16 10 0 6 4 10 9 10 6 0 13 -4 16 -10z m40 0 c3 -5 -1 -10 -10 -10 -9
0 -13 5 -10 10 3 6 8 10 10 10 2 0 7 -4 10 -10z m195 0 c0 -5 -4 -10 -9 -10
-5 0 -18 -3 -28 -6 -16 -5 -16 -4 1 10 23 18 36 20 36 6z m260 6 c0 -3 -4 -8
-10 -11 -5 -3 -10 -1 -10 4 0 6 5 11 10 11 6 0 10 -2 10 -4z m55 -6 c3 -6 -4
-10 -17 -10 -18 0 -20 2 -8 10 19 12 18 12 25 0z m35 0 c0 -5 -4 -10 -10 -10
-5 0 -10 5 -10 10 0 6 5 10 10 10 6 0 10 -4 10 -10z m50 6 c0 -2 -7 -7 -16
-10 -8 -3 -12 -2 -9 4 6 10 25 14 25 6z m-761 -22 c2 -2 -10 -4 -27 -4 -18 0
-32 5 -32 10 0 9 47 4 59 -6z m51 6 c0 -5 -4 -10 -9 -10 -6 0 -13 5 -16 10 -3
6 1 10 9 10 9 0 16 -4 16 -10z m30 0 c0 -5 -2 -10 -4 -10 -3 0 -8 5 -11 10 -3
6 -1 10 4 10 6 0 11 -4 11 -10z m146 -6 c18 -14 18 -15 -6 -8 -31 8 -50 24
-29 24 8 0 24 -7 35 -16z m59 6 c3 -5 -1 -10 -9 -10 -9 0 -16 5 -16 10 0 6 4
10 9 10 6 0 13 -4 16 -10z m510 0 c-3 -5 -11 -10 -16 -10 -6 0 -7 5 -4 10 3 6
11 10 16 10 6 0 7 -4 4 -10z m92 -6 c-3 -3 -12 -4 -19 -1 -8 3 -5 6 6 6 11 1
17 -2 13 -5z m-420 -11 c-4 -3 -31 -7 -60 -8 -34 -1 -45 1 -32 6 25 9 101 12
92 2z m43 3 c0 -11 -19 -15 -25 -6 -3 5 1 10 9 10 9 0 16 -2 16 -4z m40 -6 c0
-5 -7 -10 -16 -10 -8 0 -12 5 -9 10 3 6 10 10 16 10 5 0 9 -4 9 -10z m45 0 c3
-5 -1 -10 -9 -10 -9 0 -16 5 -16 10 0 6 4 10 9 10 6 0 13 -4 16 -10z m-478 -6
c-3 -3 -12 -4 -19 -1 -8 3 -5 6 6 6 11 1 17 -2 13 -5z m33 -4 c0 -5 -4 -10
-10 -10 -5 0 -10 5 -10 10 0 6 5 10 10 10 6 0 10 -4 10 -10z m90 -10 c35 -8
35 -8 5 -9 -39 -1 -75 9 -75 21 0 6 8 7 18 3 9 -4 33 -11 52 -15z m397 14 c-3
-3 -12 -4 -19 -1 -8 3 -5 6 6 6 11 1 17 -2 13 -5z m43 -4 c0 -5 -4 -10 -10
-10 -5 0 -10 5 -10 10 0 6 5 10 10 10 6 0 10 -4 10 -10z m47 4 c-3 -3 -12 -4
-19 -1 -8 3 -5 6 6 6 11 1 17 -2 13 -5z m38 -4 c3 -5 1 -10 -4 -10 -6 0 -11 5
-11 10 0 6 2 10 4 10 3 0 8 -4 11 -10z m-695 -8 c0 -5 -13 -7 -30 -4 -16 2
-30 6 -30 8 0 2 14 4 30 4 17 0 30 -4 30 -8z m240 4 c0 -2 -7 -6 -15 -10 -8
-3 -15 -1 -15 4 0 6 7 10 15 10 8 0 15 -2 15 -4z m40 -6 c0 -5 -8 -10 -17 -10
-15 0 -16 2 -3 10 19 12 20 12 20 0z m-357 -7 c-7 -2 -19 -2 -25 0 -7 3 -2 5
12 5 14 0 19 -2 13 -5z m487 -3 c0 -5 -4 -10 -10 -10 -5 0 -10 5 -10 10 0 6 5
10 10 10 6 0 10 -4 10 -10z m40 6 c0 -3 -4 -8 -10 -11 -5 -3 -10 -1 -10 4 0 6
5 11 10 11 6 0 10 -2 10 -4z m-120 -16 c0 -5 -4 -10 -10 -10 -5 0 -10 5 -10
10 0 6 5 10 10 10 6 0 10 -4 10 -10z m335 0 c-3 -5 -11 -10 -16 -10 -6 0 -7 5
-4 10 3 6 11 10 16 10 6 0 7 -4 4 -10z m-607 -7 c-10 -2 -26 -2 -35 0 -10 3
-2 5 17 5 19 0 27 -2 18 -5z m67 -3 c13 -5 14 -9 5 -9 -8 0 -24 4 -35 9 -13 5
-14 9 -5 9 8 0 24 -4 35 -9z m455 0 c0 -5 -2 -10 -4 -10 -3 0 -8 5 -11 10 -3
6 -1 10 4 10 6 0 11 -4 11 -10z m40 6 c0 -3 -4 -8 -10 -11 -5 -3 -10 -1 -10 4
0 6 5 11 10 11 6 0 10 -2 10 -4z m125 -6 c-3 -5 -12 -10 -18 -10 -7 0 -6 4 3
10 19 12 23 12 15 0z m-535 -10 c0 -5 -2 -10 -4 -10 -3 0 -8 5 -11 10 -3 6 -1
10 4 10 6 0 11 -4 11 -10z m40 0 c0 -5 -2 -10 -4 -10 -3 0 -8 5 -11 10 -3 6
-1 10 4 10 6 0 11 -4 11 -10z m45 0 c3 -6 -1 -7 -9 -4 -18 7 -21 14 -7 14 6 0
13 -4 16 -10z m85 0 c0 -5 -2 -10 -4 -10 -3 0 -8 5 -11 10 -3 6 -1 10 4 10 6
0 11 -4 11 -10z m80 0 c0 -5 -5 -10 -11 -10 -5 0 -7 5 -4 10 3 6 8 10 11 10 2
0 4 -4 4 -10z m-283 -6 c-3 -3 -12 -4 -19 -1 -8 3 -5 6 6 6 11 1 17 -2 13 -5z
m253 2 c0 -11 -19 -15 -25 -6 -3 5 1 10 9 10 9 0 16 -2 16 -4z m77 -2 c-3 -3
-12 -4 -19 -1 -8 3 -5 6 6 6 11 1 17 -2 13 -5z m-160 -10 c-3 -3 -12 -4 -19
-1 -8 3 -5 6 6 6 11 1 17 -2 13 -5z m203 2 c0 -11 -19 -15 -25 -6 -3 5 1 10 9
10 9 0 16 -2 16 -4z m-353 -22 c-3 -3 -12 -4 -19 -1 -8 3 -5 6 6 6 11 1 17 -2
13 -5z m70 0 c-3 -3 -12 -4 -19 -1 -8 3 -5 6 6 6 11 1 17 -2 13 -5z m83 -14
c0 -5 -2 -10 -4 -10 -3 0 -8 5 -11 10 -3 6 -1 10 4 10 6 0 11 -4 11 -10z
m-193 -6 c-3 -3 -12 -4 -19 -1 -8 3 -5 6 6 6 11 1 17 -2 13 -5z m163 -14 c0
-5 -5 -10 -11 -10 -5 0 -7 5 -4 10 3 6 8 10 11 10 2 0 4 -4 4 -10z m77 4 c-3
-3 -12 -4 -19 -1 -8 3 -5 6 6 6 11 1 17 -2 13 -5z m-190 -10 c-3 -3 -12 -4
-19 -1 -8 3 -5 6 6 6 11 1 17 -2 13 -5z m-892 -24 c-3 -5 -10 -10 -16 -10 -5
0 -9 5 -9 10 0 6 7 10 16 10 8 0 12 -4 9 -10z m2273 -1 c-12 -7 -24 -7 -35 0
-15 9 -12 10 17 10 29 0 32 -1 18 -10z m-2231 -5 c-3 -3 -12 -4 -19 -1 -8 3
-5 6 6 6 11 1 17 -2 13 -5z m2183 -64 c-8 -5 -19 -10 -25 -10 -5 0 -3 5 5 10
8 5 20 10 25 10 6 0 3 -5 -5 -10z m-73 -26 c-3 -3 -12 -4 -19 -1 -8 3 -5 6 6
6 11 1 17 -2 13 -5z m3 -24 c-8 -5 -19 -10 -25 -10 -5 0 -3 5 5 10 8 5 20 10
25 10 6 0 3 -5 -5 -10z m-1970 -10 c-8 -5 -22 -10 -30 -10 -13 0 -13 1 0 10 8
5 22 10 30 10 13 0 13 -1 0 -10z m1907 -26 c-3 -3 -12 -4 -19 -1 -8 3 -5 6 6
6 11 1 17 -2 13 -5z m-34 -31 c-7 -2 -19 -2 -25 0 -7 3 -2 5 12 5 14 0 19 -2
13 -5z m-93 -11 c0 -4 -9 -8 -19 -8 -11 0 -17 4 -15 8 3 4 12 8 20 8 8 0 14
-4 14 -8z m63 -19 c-7 -2 -19 -2 -25 0 -7 3 -2 5 12 5 14 0 19 -2 13 -5z
m-1540 -10 c-7 -2 -19 -2 -25 0 -7 3 -2 5 12 5 14 0 19 -2 13 -5z m1452 -23
c-3 -5 -27 -9 -53 -8 l-47 1 50 7 c28 4 51 8 53 8 2 1 0 -2 -3 -8z m-1442 -7
c-7 -2 -19 -2 -25 0 -7 3 -2 5 12 5 14 0 19 -2 13 -5z m-63 -7 c0 -2 -7 -6
-15 -10 -8 -3 -15 -1 -15 4 0 6 7 10 15 10 8 0 15 -2 15 -4z m1387 -22 c-3 -3
-12 -4 -19 -1 -8 3 -5 6 6 6 11 1 17 -2 13 -5z m56 -1 c-7 -2 -19 -2 -25 0 -7
3 -2 5 12 5 14 0 19 -2 13 -5z m-170 -20 c-7 -2 -19 -2 -25 0 -7 3 -2 5 12 5
14 0 19 -2 13 -5z m-1216 -9 c-3 -3 -12 -4 -19 -1 -8 3 -5 6 6 6 11 1 17 -2
13 -5z m728 -4 c-3 -5 -12 -10 -18 -10 -7 0 -6 4 3 10 19 12 23 12 15 0z m572
-5 c0 -11 -11 -15 -46 -13 l-46 1 39 4 c29 3 36 7 25 14 -11 7 -10 9 7 9 12 0
21 -6 21 -15z m-160 -1 c-3 -3 -12 -4 -19 -1 -8 3 -5 6 6 6 11 1 17 -2 13 -5z
m-994 -11 c-7 -2 -19 -2 -25 0 -7 3 -2 5 12 5 14 0 19 -2 13 -5z m797 -43 c-8
-5 -19 -10 -25 -10 -5 0 -3 5 5 10 8 5 20 10 25 10 6 0 3 -5 -5 -10z m-55 -10
c-3 -5 -1 -10 6 -10 7 0 10 -2 8 -5 -3 -2 -16 -1 -29 2 -22 6 -23 7 -4 14 26
10 26 10 19 -1z m120 0 c3 -5 1 -10 -4 -10 -6 0 -11 5 -11 10 0 6 2 10 4 10 3
0 8 -4 11 -10z m-802 -7 c-7 -2 -19 -2 -25 0 -7 3 -2 5 12 5 14 0 19 -2 13 -5z
m230 0 c-7 -2 -19 -2 -25 0 -7 3 -2 5 12 5 14 0 19 -2 13 -5z m-133 -17 c0 -2
-7 -7 -16 -10 -8 -3 -12 -2 -9 4 6 10 25 14 25 6z m480 -6 c0 -5 -7 -10 -16
-10 -8 0 -12 5 -9 10 3 6 10 10 16 10 5 0 9 -4 9 -10z m60 6 c0 -2 -9 -6 -20
-9 -11 -3 -18 -1 -14 4 5 9 34 13 34 5z m-614 -31 c-11 -8 -27 -15 -35 -14 -9
0 -2 7 14 14 39 18 45 18 21 0z m329 0 c-23 -8 -124 -11 -119 -3 3 4 33 8 67
7 34 0 58 -2 52 -4z m250 -5 c3 -5 -1 -10 -10 -10 -9 0 -13 5 -10 10 3 6 8 10
10 10 2 0 7 -4 10 -10z m-200 -10 c-3 -5 -32 -9 -63 -8 l-57 1 60 7 c33 4 61
7 63 8 2 1 0 -2 -3 -8z m75 -10 c0 -5 -5 -10 -11 -10 -5 0 -7 5 -4 10 3 6 8
10 11 10 2 0 4 -4 4 -10z m47 4 c-3 -3 -12 -4 -19 -1 -8 3 -5 6 6 6 11 1 17
-2 13 -5z m43 -4 c0 -5 -4 -10 -10 -10 -5 0 -10 5 -10 10 0 6 5 10 10 10 6 0
10 -4 10 -10z"/>
<path d="M2900 1630 c-13 -10 -28 -16 -32 -14 -4 3 -8 0 -8 -7 0 -12 61 -5 89
11 11 6 10 10 -5 18 -15 8 -25 6 -44 -8z"/>
<path d="M1515 1230 c3 -5 13 -10 21 -10 8 0 14 5 14 10 0 6 -9 10 -21 10 -11
0 -17 -4 -14 -10z"/>
<path d="M555 2640 c3 -5 11 -10 16 -10 6 0 7 5 4 10 -3 6 -11 10 -16 10 -6 0
-7 -4 -4 -10z"/>
<path d="M520 2631 c0 -10 39 -46 43 -40 2 2 -7 14 -20 26 -13 12 -23 19 -23
14z"/>
<path d="M531 2559 c17 -17 33 -28 35 -26 6 5 -46 57 -58 57 -5 0 5 -14 23
-31z"/>
<path d="M565 2570 c3 -5 14 -10 23 -10 15 0 15 2 2 10 -20 13 -33 13 -25 0z"/>
<path d="M470 2561 c0 -6 4 -11 8 -11 15 0 52 -37 45 -44 -3 -3 -1 -6 5 -6 18
0 14 15 -10 37 -32 28 -48 36 -48 24z"/>
<path d="M2843 2563 c9 -2 23 -2 30 0 6 3 -1 5 -18 5 -16 0 -22 -2 -12 -5z"/>
<path d="M460 2525 c7 -8 20 -15 28 -15 13 0 12 3 -4 15 -25 19 -40 19 -24 0z"/>
<path d="M2875 2530 c27 -12 43 -12 25 0 -8 5 -22 9 -30 9 -10 0 -8 -3 5 -9z"/>
<path d="M430 2505 c0 -5 34 -39 78 -78 18 -15 32 -23 32 -17 0 6 -10 18 -21
28 -12 9 -33 29 -47 45 -23 24 -42 35 -42 22z"/>
<path d="M2828 2503 c6 -2 18 -2 25 0 6 3 1 5 -13 5 -14 0 -19 -2 -12 -5z"/>
<path d="M2893 2493 c9 -2 25 -2 35 0 9 3 1 5 -18 5 -19 0 -27 -2 -17 -5z"/>
<path d="M491 2487 c38 -30 68 -46 63 -34 -3 8 -16 19 -30 26 -23 10 -42 15
-33 8z"/>
<path d="M2846 2471 c-4 -5 3 -7 14 -4 23 6 26 13 6 13 -8 0 -17 -4 -20 -9z"/>
<path d="M410 2460 c0 -5 3 -10 8 -10 4 0 21 -14 39 -30 18 -17 38 -30 44 -30
7 0 -6 18 -29 40 -41 39 -62 50 -62 30z"/>
<path d="M2903 2463 c9 -2 23 -2 30 0 6 3 -1 5 -18 5 -16 0 -22 -2 -12 -5z"/>
<path d="M2870 2439 c-30 -5 -27 -7 22 -8 31 0 65 -4 75 -8 10 -3 15 -3 11 1
-12 14 -72 22 -108 15z"/>
<path d="M400 2429 c0 -22 68 -79 93 -78 15 0 17 2 7 6 -8 3 -34 24 -57 46
-27 26 -43 36 -43 26z"/>
<path d="M2908 2403 c12 -2 30 -2 40 0 9 3 -1 5 -23 4 -22 0 -30 -2 -17 -4z"/>
<path d="M2853 2362 c-26 -12 -26 -13 -3 -8 14 3 52 6 84 6 33 0 56 3 52 7
-12 12 -103 9 -133 -5z"/>
<path d="M556 2347 c3 -10 9 -15 12 -12 3 3 0 11 -7 18 -10 9 -11 8 -5 -6z"/>
<path d="M510 2330 c-7 -4 1 -13 23 -24 41 -19 47 -20 47 -5 0 5 -4 8 -10 4
-5 -3 -18 3 -28 13 -11 11 -25 16 -32 12z"/>
<path d="M2885 2330 c-12 -5 5 -7 45 -3 36 3 67 7 69 9 9 8 -95 2 -114 -6z"/>
<path d="M2970 2310 c-25 -4 -34 -8 -22 -8 38 -3 20 -26 -29 -39 -36 -9 -39
-12 -16 -12 16 -1 36 3 45 7 12 7 32 -1 70 -29 57 -40 50 -55 -16 -35 -23 7
-43 6 -66 -2 -18 -7 -42 -12 -54 -12 -11 0 -24 -5 -27 -11 -8 -12 65 -2 80 12
12 11 55 12 55 1 0 -8 -16 -14 -95 -37 -5 -2 4 -3 20 -4 17 0 39 4 50 9 13 5
25 3 35 -5 8 -7 31 -18 50 -23 33 -10 33 -10 7 -11 -15 -1 -36 4 -46 11 -15 9
-25 9 -46 0 -15 -7 -31 -10 -36 -7 -5 4 -9 1 -9 -4 0 -15 33 -14 47 0 9 9 24
7 62 -10 27 -11 62 -21 78 -21 27 1 27 1 8 16 -16 12 -17 16 -6 24 11 6 4 10
-25 16 -21 3 -50 13 -64 21 -19 10 -20 13 -5 9 65 -15 85 -17 85 -8 0 6 -6 13
-12 15 -10 4 -9 8 2 16 13 9 13 11 -2 11 -23 0 -34 20 -17 31 9 7 5 7 -13 3
-18 -4 -28 -2 -28 6 0 6 5 8 11 5 6 -4 5 2 -3 14 -7 12 -22 21 -32 21 -20 0
-20 0 0 -15 21 -16 8 -21 -15 -6 -12 8 -12 12 -2 25 7 8 19 12 27 9 10 -4 12
0 8 11 -3 9 -7 15 -8 14 0 0 -21 -4 -46 -8z"/>
<path d="M2900 2289 c0 -5 5 -7 10 -4 6 3 10 8 10 11 0 2 -4 4 -10 4 -5 0 -10
-5 -10 -11z"/>
<path d="M604 2270 c1 -8 10 -16 21 -17 15 -1 15 0 3 3 -9 3 -19 11 -21 17 -2
7 -3 5 -3 -3z"/>
<path d="M2838 2283 c7 -3 16 -2 19 1 4 3 -2 6 -13 5 -11 0 -14 -3 -6 -6z"/>
<path d="M545 2260 c24 -10 61 -44 68 -62 2 -7 8 -10 12 -6 4 4 -6 19 -21 35
-16 15 -28 31 -26 36 1 4 -10 7 -25 6 -25 0 -26 -1 -8 -9z"/>
<path d="M640 2240 c-8 -5 -10 -10 -5 -10 6 0 17 5 25 10 8 5 11 10 5 10 -5 0
-17 -5 -25 -10z"/>
<path d="M530 2225 c0 -8 7 -15 16 -15 14 0 14 3 4 15 -7 8 -14 15 -16 15 -2
0 -4 -7 -4 -15z"/>
<path d="M2910 2225 l-45 -13 59 4 c38 2 68 -2 87 -12 16 -8 29 -11 29 -7 -1
8 -66 44 -78 42 -4 -1 -27 -7 -52 -14z"/>
<path d="M513 2193 c9 -9 20 -13 24 -9 4 4 1 11 -7 16 -25 16 -35 11 -17 -7z"/>
<path d="M577 2191 c6 -23 21 -37 30 -28 3 3 -4 16 -15 28 l-21 21 6 -21z"/>
<path d="M630 2172 c0 -5 5 -13 12 -20 16 -16 29 -15 22 2 -6 16 -34 30 -34
18z"/>
<path d="M2620 2170 c-9 -6 -10 -10 -3 -10 6 0 15 5 18 10 8 12 4 12 -15 0z"/>
<path d="M550 2150 c0 -13 18 -22 24 -11 3 5 -1 11 -9 15 -8 3 -15 1 -15 -4z"/>
<path d="M520 2124 c0 -9 54 -64 62 -64 15 0 8 17 -17 44 -22 24 -45 34 -45
20z"/>
<path d="M580 2121 c0 -5 8 -15 18 -22 15 -12 16 -12 5 2 -7 9 -10 19 -6 22 3
4 1 7 -5 7 -7 0 -12 -4 -12 -9z"/>
<path d="M2858 2123 c7 -3 16 -2 19 1 4 3 -2 6 -13 5 -11 0 -14 -3 -6 -6z"/>
<path d="M630 2109 c0 -5 5 -7 10 -4 6 3 10 8 10 11 0 2 -4 4 -10 4 -5 0 -10
-5 -10 -11z"/>
<path d="M2860 2089 c-35 -19 -35 -19 -5 -13 17 4 37 13 45 20 20 19 2 16 -40
-7z"/>
<path d="M2703 2080 c-30 -12 -29 -18 2 -12 14 2 25 8 25 13 0 5 -1 9 -2 8 -2
0 -13 -4 -25 -9z"/>
<path d="M2910 2071 c0 -5 -8 -12 -17 -14 -14 -4 -12 -5 5 -6 13 -1 22 5 22
14 0 8 -2 15 -5 15 -3 0 -5 -4 -5 -9z"/>
<path d="M622 2050 c7 -10 14 -18 15 -16 6 6 -9 36 -18 36 -5 0 -4 -9 3 -20z"/>
<path d="M2698 2032 c-19 -11 -19 -12 -3 -7 11 4 28 8 39 11 27 5 32 13 7 11
-11 -1 -31 -7 -43 -15z"/>
<path d="M2838 2033 c6 -2 18 -2 25 0 6 3 1 5 -13 5 -14 0 -19 -2 -12 -5z"/>
<path d="M770 2020 c0 -5 5 -10 11 -10 5 0 7 5 4 10 -3 6 -8 10 -11 10 -2 0
-4 -4 -4 -10z"/>
<path d="M2753 2017 c-17 -7 -35 -16 -40 -20 -10 -10 48 2 62 13 6 4 19 10 30
13 l20 5 -20 0 c-11 0 -34 -5 -52 -11z"/>
<path d="M800 2000 c0 -5 5 -10 11 -10 5 0 7 5 4 10 -3 6 -8 10 -11 10 -2 0
-4 -4 -4 -10z"/>
<path d="M2663 1986 c-18 -6 -36 -16 -40 -20 -4 -5 0 -6 10 -3 11 4 30 10 43
13 13 3 24 10 24 15 0 5 -1 8 -2 8 -2 -1 -17 -7 -35 -13z"/>
<path d="M730 1978 c0 -6 3 -8 6 -5 4 3 16 0 28 -8 11 -8 27 -15 36 -15 8 0
-2 9 -23 20 -43 23 -47 24 -47 8z"/>
<path d="M2580 1950 c0 -5 4 -10 9 -10 6 0 13 5 16 10 3 6 -1 10 -9 10 -9 0
-16 -4 -16 -10z"/>
<path d="M2685 1950 c-3 -5 -1 -10 4 -10 6 0 11 5 11 10 0 6 -2 10 -4 10 -3 0
-8 -4 -11 -10z"/>
<path d="M2790 1948 c-19 -5 -39 -14 -45 -20 -7 -8 -2 -9 15 -4 42 12 54 14
68 15 6 1 12 6 12 11 0 12 -3 12 -50 -2z"/>
<path d="M2625 1930 c-7 -12 2 -12 30 0 19 8 19 9 -2 9 -12 1 -25 -3 -28 -9z"/>
<path d="M785 1920 c-3 -5 -1 -10 4 -10 6 0 11 5 11 10 0 6 -2 10 -4 10 -3 0
-8 -4 -11 -10z"/>
<path d="M2700 1917 c-101 -41 -126 -60 -32 -25 62 24 67 26 61 32 -2 2 -15
-1 -29 -7z"/>
<path d="M2930 1909 l-35 -20 30 6 c17 4 37 13 45 21 20 20 1 17 -40 -7z"/>
<path d="M2830 1875 c-25 -7 -58 -18 -73 -24 -16 -6 -40 -11 -55 -11 -20 0
-23 -3 -12 -9 8 -6 17 -8 20 -6 3 2 23 6 45 9 22 4 42 11 43 16 2 6 11 10 20
10 18 1 84 28 67 28 -5 0 -30 -6 -55 -13z"/>
<path d="M2470 1869 c0 -5 5 -7 10 -4 6 3 10 8 10 11 0 2 -4 4 -10 4 -5 0 -10
-5 -10 -11z"/>
<path d="M2656 1861 c-3 -5 -23 -12 -43 -16 -21 -4 -32 -10 -26 -12 17 -6 83
16 83 28 0 11 -7 12 -14 0z"/>
<path d="M2505 1850 c-3 -5 -1 -10 4 -10 6 0 11 5 11 10 0 6 -2 10 -4 10 -3 0
-8 -4 -11 -10z"/>
<path d="M2534 1830 c-12 -5 -25 -14 -29 -21 -5 -7 -3 -9 6 -5 8 3 22 9 32 12
9 4 17 10 17 15 0 5 -1 9 -2 8 -2 0 -13 -4 -24 -9z"/>
<path d="M2465 1820 c3 -5 8 -10 11 -10 2 0 4 5 4 10 0 6 -5 10 -11 10 -5 0
-7 -4 -4 -10z"/>
<path d="M2633 1816 c-24 -11 -33 -32 -10 -22 6 3 20 9 30 12 9 4 17 10 17 15
0 11 -8 10 -37 -5z"/>
<path d="M2118 1813 c7 -3 16 -2 19 1 4 3 -2 6 -13 5 -11 0 -14 -3 -6 -6z"/>
<path d="M2425 1810 c-3 -6 1 -7 9 -4 18 7 21 14 7 14 -6 0 -13 -4 -16 -10z"/>
<path d="M2320 1800 c-9 -6 -10 -10 -3 -10 6 0 15 5 18 10 8 12 4 12 -15 0z"/>
<path d="M2358 1803 c7 -3 16 -2 19 1 4 3 -2 6 -13 5 -11 0 -14 -3 -6 -6z"/>
<path d="M2390 1799 c0 -5 5 -7 10 -4 6 3 10 8 10 11 0 2 -4 4 -10 4 -5 0 -10
-5 -10 -11z"/>
<path d="M2556 1801 c-4 -5 3 -7 14 -4 23 6 26 13 6 13 -8 0 -17 -4 -20 -9z"/>
<path d="M2685 1800 c-19 -8 -19 -9 3 -9 12 -1 22 4 22 9 0 6 -1 10 -2 9 -2 0
-12 -4 -23 -9z"/>
<path d="M2820 1800 c0 -5 6 -10 14 -10 8 0 18 5 21 10 3 6 -3 10 -14 10 -12
0 -21 -4 -21 -10z"/>
<path d="M2190 1790 c-9 -6 -10 -10 -3 -10 6 0 15 5 18 10 8 12 4 12 -15 0z"/>
<path d="M2441 1779 c-13 -5 -22 -11 -20 -14 8 -7 49 7 49 16 0 5 -1 9 -2 8
-2 0 -14 -5 -27 -10z"/>
<path d="M2639 1769 c-11 -21 -13 -21 -24 -6 -7 9 -18 17 -26 17 -8 0 -6 -5 5
-13 17 -13 16 -15 -15 -35 -43 -27 -31 -28 27 -2 25 12 48 28 51 36 9 25 -5
27 -18 3z"/>
<path d="M2495 1770 c-7 -12 2 -12 30 0 19 8 19 9 -2 9 -12 1 -25 -3 -28 -9z"/>
<path d="M938 1763 c7 -3 16 -2 19 1 4 3 -2 6 -13 5 -11 0 -14 -3 -6 -6z"/>
<path d="M2345 1760 c3 -5 8 -10 11 -10 2 0 4 5 4 10 0 6 -5 10 -11 10 -5 0
-7 -4 -4 -10z"/>
<path d="M2370 1766 c0 -9 30 -14 35 -6 4 6 -3 10 -14 10 -12 0 -21 -2 -21 -4z"/>
<path d="M855 1740 c3 -5 8 -10 11 -10 2 0 4 5 4 10 0 6 -5 10 -11 10 -5 0 -7
-4 -4 -10z"/>
<path d="M2416 1731 c-13 -5 -16 -10 -9 -14 7 -4 15 -2 18 4 5 6 20 8 40 5 19
-4 36 -3 39 2 6 10 -62 12 -88 3z"/>
<path d="M2525 1730 c3 -5 8 -10 11 -10 2 0 4 5 4 10 0 6 -5 10 -11 10 -5 0
-7 -4 -4 -10z"/>
<path d="M2370 1720 c0 -5 5 -10 10 -10 6 0 10 5 10 10 0 6 -4 10 -10 10 -5 0
-10 -4 -10 -10z"/>
<path d="M2200 1710 c0 -5 5 -10 10 -10 6 0 10 5 10 10 0 6 -4 10 -10 10 -5 0
-10 -4 -10 -10z"/>
<path d="M2328 1713 c7 -3 16 -2 19 1 4 3 -2 6 -13 5 -11 0 -14 -3 -6 -6z"/>
<path d="M1030 1700 c0 -5 5 -10 11 -10 5 0 7 5 4 10 -3 6 -8 10 -11 10 -2 0
-4 -4 -4 -10z"/>
<path d="M2130 1700 c0 -5 5 -10 11 -10 5 0 7 5 4 10 -3 6 -8 10 -11 10 -2 0
-4 -4 -4 -10z"/>
<path d="M2383 1689 c-41 -12 -42 -19 -3 -16 16 1 32 8 35 15 2 6 3 12 2 11
-1 0 -17 -5 -34 -10z"/>
<path d="M2435 1690 c3 -5 10 -10 16 -10 5 0 9 5 9 10 0 6 -7 10 -16 10 -8 0
-12 -4 -9 -10z"/>
<path d="M2480 1685 c-8 -9 -8 -15 -2 -15 12 0 26 19 19 26 -2 2 -10 -2 -17
-11z"/>
<path d="M750 1681 c0 -5 8 -12 19 -16 10 -3 42 -30 70 -60 28 -30 53 -55 57
-55 4 0 1 7 -6 15 -7 8 -10 15 -8 15 3 0 -15 21 -41 48 -25 26 -49 46 -53 45
-4 -2 -9 1 -13 7 -8 13 -25 13 -25 1z"/>
<path d="M880 1674 c0 -8 5 -12 10 -9 6 4 8 11 5 16 -9 14 -15 11 -15 -7z"/>
<path d="M2281 1681 c-8 -6 -9 -11 -3 -15 6 -3 14 -1 17 5 9 14 2 20 -14 10z"/>
<path d="M2317 1683 c-12 -12 -7 -22 8 -17 8 4 15 10 15 15 0 11 -14 12 -23 2z"/>
<path d="M2191 1671 c-10 -6 -9 -10 3 -14 8 -3 18 -2 21 3 8 13 -9 20 -24 11z"/>
<path d="M840 1661 c0 -5 5 -13 10 -16 6 -3 10 -2 10 4 0 5 -4 13 -10 16 -5 3
-10 2 -10 -4z"/>
<path d="M2070 1660 c-9 -6 -10 -10 -3 -10 6 0 15 5 18 10 8 12 4 12 -15 0z"/>
<path d="M2235 1660 c-3 -5 -1 -10 4 -10 6 0 11 5 11 10 0 6 -2 10 -4 10 -3 0
-8 -4 -11 -10z"/>
<path d="M2408 1658 c-28 -10 -35 -22 -19 -32 5 -3 11 1 15 9 3 8 15 15 26 15
11 0 20 5 20 10 0 12 -6 12 -42 -2z"/>
<path d="M950 1650 c0 -5 5 -10 10 -10 6 0 10 5 10 10 0 6 -4 10 -10 10 -5 0
-10 -4 -10 -10z"/>
<path d="M910 1640 c0 -5 5 -10 11 -10 5 0 7 5 4 10 -3 6 -8 10 -11 10 -2 0
-4 -4 -4 -10z"/>
<path d="M2148 1643 c7 -3 16 -2 19 1 4 3 -2 6 -13 5 -11 0 -14 -3 -6 -6z"/>
<path d="M2337 1639 c-11 -6 -32 -9 -48 -5 -15 3 -31 2 -33 -3 -11 -17 55 -21
85 -6 28 15 37 25 22 25 -5 0 -16 -5 -26 -11z"/>
<path d="M870 1630 c0 -5 5 -10 11 -10 5 0 7 5 4 10 -3 6 -8 10 -11 10 -2 0
-4 -4 -4 -10z"/>
<path d="M2105 1630 c3 -5 8 -10 11 -10 2 0 4 5 4 10 0 6 -5 10 -11 10 -5 0
-7 -4 -4 -10z"/>
<path d="M2186 1631 c-4 -7 -5 -15 -2 -18 9 -9 19 4 14 18 -4 11 -6 11 -12 0z"/>
<path d="M985 1620 c3 -5 18 -10 32 -10 32 0 28 5 -10 14 -19 4 -26 3 -22 -4z"/>
<path d="M1928 1623 c7 -3 16 -2 19 1 4 3 -2 6 -13 5 -11 0 -14 -3 -6 -6z"/>
<path d="M950 1610 c0 -5 5 -10 11 -10 5 0 7 5 4 10 -3 6 -8 10 -11 10 -2 0
-4 -4 -4 -10z"/>
<path d="M1808 1613 c7 -3 16 -2 19 1 4 3 -2 6 -13 5 -11 0 -14 -3 -6 -6z"/>
<path d="M2010 1610 c-9 -6 -10 -10 -3 -10 6 0 15 5 18 10 8 12 4 12 -15 0z"/>
<path d="M2111 1609 c-18 -6 -31 -12 -28 -15 6 -6 87 14 87 21 0 7 -20 5 -59
-6z"/>
<path d="M2220 1609 c0 -5 5 -7 10 -4 6 3 10 8 10 11 0 2 -4 4 -10 4 -5 0 -10
-5 -10 -11z"/>
<path d="M2410 1610 c0 -13 49 -18 59 -6 6 8 -1 12 -25 13 -19 1 -34 -2 -34
-7z"/>
<path d="M900 1600 c0 -6 7 -10 15 -10 8 0 15 2 15 4 0 2 -7 6 -15 10 -8 3
-15 1 -15 -4z"/>
<path d="M1550 1599 c0 -5 5 -7 10 -4 6 3 10 8 10 11 0 2 -4 4 -10 4 -5 0 -10
-5 -10 -11z"/>
<path d="M1965 1600 c-3 -5 -2 -10 4 -10 5 0 13 5 16 10 3 6 2 10 -4 10 -5 0
-13 -4 -16 -10z"/>
<path d="M2326 1594 c-26 -9 -46 -17 -44 -19 5 -5 108 21 116 29 9 10 -20 5
-72 -10z"/>
<path d="M2257 1593 c-4 -3 -7 -11 -7 -17 0 -6 5 -5 12 2 6 6 9 14 7 17 -3 3
-9 2 -12 -2z"/>
<path d="M810 1580 c0 -5 4 -10 9 -10 6 0 13 5 16 10 3 6 -1 10 -9 10 -9 0
-16 -4 -16 -10z"/>
<path d="M1070 1570 c14 -11 29 -20 34 -20 5 0 -3 9 -17 20 -14 11 -29 20 -34
20 -4 0 3 -9 17 -20z"/>
<path d="M1888 1583 c7 -3 16 -2 19 1 4 3 -2 6 -13 5 -11 0 -14 -3 -6 -6z"/>
<path d="M1920 1580 c0 -5 7 -7 15 -4 8 4 15 8 15 10 0 2 -7 4 -15 4 -8 0 -15
-4 -15 -10z"/>
<path d="M2040 1580 c0 -5 5 -10 10 -10 6 0 10 5 10 10 0 6 -4 10 -10 10 -5 0
-10 -4 -10 -10z"/>
<path d="M970 1570 c0 -5 7 -10 16 -10 8 0 12 5 9 10 -3 6 -10 10 -16 10 -5 0
-9 -4 -9 -10z"/>
<path d="M1015 1570 c-3 -5 -1 -10 4 -10 6 0 11 5 11 10 0 6 -2 10 -4 10 -3 0
-8 -4 -11 -10z"/>
<path d="M1977 1564 c-16 -9 -26 -18 -23 -21 3 -3 11 -1 18 5 7 6 17 10 23 10
5 0 11 5 13 11 5 14 3 14 -31 -5z"/>
<path d="M2121 1571 c-8 -5 -9 -11 -3 -15 6 -3 14 -2 17 4 4 6 15 8 26 5 11
-4 19 -2 19 4 0 13 -39 14 -59 2z"/>
<path d="M2355 1564 c-22 -8 -62 -15 -90 -16 -27 0 -79 -6 -113 -14 -35 -8
-67 -12 -71 -10 -9 6 -37 -11 -31 -18 3 -2 28 0 55 5 28 6 61 11 75 13 14 2
25 5 25 5 0 1 25 3 55 4 30 2 61 6 68 10 6 5 17 5 22 2 6 -4 16 -2 23 3 12 10
18 12 37 12 6 0 10 5 10 10 0 13 -17 12 -65 -6z"/>
<path d="M930 1565 c0 -13 37 -45 52 -45 9 0 21 -8 26 -17 6 -9 16 -18 23 -19
8 -1 22 -5 32 -9 9 -4 17 -3 17 3 0 5 -13 12 -29 15 -18 4 -32 14 -36 27 -5
15 -12 19 -30 14 -18 -4 -25 -1 -30 15 -5 18 -25 30 -25 16z"/>
<path d="M1328 1563 c7 -3 16 -2 19 1 4 3 -2 6 -13 5 -11 0 -14 -3 -6 -6z"/>
<path d="M1658 1563 c7 -3 16 -2 19 1 4 3 -2 6 -13 5 -11 0 -14 -3 -6 -6z"/>
<path d="M1740 1560 c0 -5 5 -10 10 -10 6 0 10 5 10 10 0 6 -4 10 -10 10 -5 0
-10 -4 -10 -10z"/>
<path d="M2075 1560 c-19 -8 -19 -9 3 -9 12 -1 22 4 22 9 0 6 -1 10 -2 9 -2 0
-12 -4 -23 -9z"/>
<path d="M1035 1542 c-3 -3 9 -12 26 -19 41 -17 49 -10 10 10 -16 8 -32 12
-36 9z"/>
<path d="M1275 1540 c3 -5 8 -10 11 -10 2 0 4 5 4 10 0 6 -5 10 -11 10 -5 0
-7 -4 -4 -10z"/>
<path d="M1780 1540 c0 -5 5 -10 10 -10 6 0 10 5 10 10 0 6 -4 10 -10 10 -5 0
-10 -4 -10 -10z"/>
<path d="M1870 1539 c0 -5 5 -7 10 -4 6 3 10 8 10 11 0 2 -4 4 -10 4 -5 0 -10
-5 -10 -11z"/>
<path d="M1910 1540 c0 -5 7 -7 15 -4 8 4 15 8 15 10 0 2 -7 4 -15 4 -8 0 -15
-4 -15 -10z"/>
<path d="M2025 1540 c4 -6 11 -8 16 -5 14 9 11 15 -7 15 -8 0 -12 -5 -9 -10z"/>
<path d="M1110 1530 c0 -5 7 -10 16 -10 8 0 12 5 9 10 -3 6 -10 10 -16 10 -5
0 -9 -4 -9 -10z"/>
<path d="M1190 1530 c0 -5 5 -10 11 -10 5 0 7 5 4 10 -3 6 -8 10 -11 10 -2 0
-4 -4 -4 -10z"/>
<path d="M1240 1530 c0 -5 5 -10 11 -10 5 0 7 5 4 10 -3 6 -8 10 -11 10 -2 0
-4 -4 -4 -10z"/>
<path d="M1667 1528 c-7 -4 5 -8 26 -8 20 0 37 4 37 9 0 10 -46 9 -63 -1z"/>
<path d="M1815 1530 c4 -6 11 -8 16 -5 14 9 11 15 -7 15 -8 0 -12 -5 -9 -10z"/>
<path d="M922 1510 c7 -11 19 -20 27 -20 11 0 9 6 -7 20 -12 11 -24 20 -27 20
-3 0 0 -9 7 -20z"/>
<path d="M1158 1513 c7 -3 16 -2 19 1 4 3 -2 6 -13 5 -11 0 -14 -3 -6 -6z"/>
<path d="M1920 1513 c-14 -3 -29 -9 -35 -15 -13 -13 56 0 70 13 10 9 8 10 -35
2z"/>
<path d="M1970 1510 c0 -5 5 -10 10 -10 6 0 10 5 10 10 0 6 -4 10 -10 10 -5 0
-10 -4 -10 -10z"/>
<path d="M2012 1513 c-6 -2 -10 -9 -7 -13 7 -11 35 -2 35 11 0 10 -8 10 -28 2z"/>
<path d="M1345 1500 c3 -5 11 -10 16 -10 6 0 7 5 4 10 -3 6 -11 10 -16 10 -6
0 -7 -4 -4 -10z"/>
<path d="M1848 1503 c7 -3 16 -2 19 1 4 3 -2 6 -13 5 -11 0 -14 -3 -6 -6z"/>
<path d="M970 1490 c0 -5 5 -10 11 -10 5 0 7 5 4 10 -3 6 -8 10 -11 10 -2 0
-4 -4 -4 -10z"/>
<path d="M1270 1489 c0 -5 5 -7 10 -4 6 3 10 8 10 11 0 2 -4 4 -10 4 -5 0 -10
-5 -10 -11z"/>
<path d="M1635 1490 c-3 -5 -1 -10 4 -10 6 0 11 5 11 10 0 6 -2 10 -4 10 -3 0
-8 -4 -11 -10z"/>
<path d="M1675 1490 c-3 -5 1 -10 10 -10 9 0 13 5 10 10 -3 6 -8 10 -10 10 -2
0 -7 -4 -10 -10z"/>
<path d="M1094 1482 c4 -6 13 -9 20 -6 14 5 41 -16 48 -38 2 -6 9 -8 16 -4 17
10 -22 45 -60 53 -22 4 -29 3 -24 -5z"/>
<path d="M1228 1483 c7 -3 16 -2 19 1 4 3 -2 6 -13 5 -11 0 -14 -3 -6 -6z"/>
<path d="M1308 1483 c7 -3 16 -2 19 1 4 3 -2 6 -13 5 -11 0 -14 -3 -6 -6z"/>
<path d="M1410 1480 c0 -5 5 -10 11 -10 5 0 7 5 4 10 -3 6 -8 10 -11 10 -2 0
-4 -4 -4 -10z"/>
<path d="M1554 1482 c5 -8 66 -4 66 4 0 2 -16 4 -36 4 -19 0 -33 -4 -30 -8z"/>
<path d="M2085 1480 c-3 -5 1 -10 9 -10 9 0 16 5 16 10 0 6 -4 10 -9 10 -6 0
-13 -4 -16 -10z"/>
<path d="M1736 1466 c-21 -10 -25 -15 -15 -21 7 -5 14 -4 17 3 2 7 10 12 17
12 8 0 17 5 20 10 8 13 -3 12 -39 -4z"/>
<path d="M1955 1471 c-34 -4 -43 -8 -29 -12 26 -8 84 1 84 12 0 5 -1 8 -2 7
-2 0 -25 -4 -53 -7z"/>
<path d="M2030 1470 c0 -5 6 -10 14 -10 8 0 18 5 21 10 3 6 -3 10 -14 10 -12
0 -21 -4 -21 -10z"/>
<path d="M1825 1460 c4 -6 11 -8 16 -5 14 9 11 15 -7 15 -8 0 -12 -5 -9 -10z"/>
<path d="M1870 1460 c0 -5 5 -10 11 -10 5 0 7 5 4 10 -3 6 -8 10 -11 10 -2 0
-4 -4 -4 -10z"/>
<path d="M1024 1448 c-3 -4 4 -8 15 -8 10 0 26 -3 35 -6 9 -3 16 -2 16 4 0 12
-59 22 -66 10z"/>
<path d="M1325 1450 c-3 -5 1 -10 10 -10 9 0 13 5 10 10 -3 6 -8 10 -10 10 -2
0 -7 -4 -10 -10z"/>
<path d="M1635 1450 c3 -5 11 -10 16 -10 6 0 7 5 4 10 -3 6 -11 10 -16 10 -6
0 -7 -4 -4 -10z"/>
<path d="M1680 1450 c0 -5 5 -10 10 -10 6 0 10 5 10 10 0 6 -4 10 -10 10 -5 0
-10 -4 -10 -10z"/>
<path d="M1785 1450 c-3 -5 1 -10 9 -10 9 0 16 5 16 10 0 6 -4 10 -9 10 -6 0
-13 -4 -16 -10z"/>
<path d="M1108 1443 c6 -2 9 -10 6 -15 -4 -7 -2 -8 4 -4 18 11 14 26 -5 25
-11 0 -13 -3 -5 -6z"/>
<path d="M1208 1443 c7 -3 16 -2 19 1 4 3 -2 6 -13 5 -11 0 -14 -3 -6 -6z"/>
<path d="M1258 1443 c12 -2 30 -2 40 0 9 3 -1 5 -23 4 -22 0 -30 -2 -17 -4z"/>
<path d="M1598 1443 c7 -3 16 -2 19 1 4 3 -2 6 -13 5 -11 0 -14 -3 -6 -6z"/>
<path d="M2008 1438 c-8 -4 4 -8 29 -8 23 0 44 3 46 8 7 10 -59 10 -75 0z"/>
<path d="M1907 1428 c-7 -4 9 -8 36 -8 26 0 47 4 47 8 0 10 -66 10 -83 0z"/>
<path d="M1810 1420 c-12 -8 -11 -10 8 -10 12 0 22 5 22 10 0 13 -11 13 -30 0z"/>
<path d="M1860 1420 c0 -5 4 -10 9 -10 6 0 13 5 16 10 3 6 -1 10 -9 10 -9 0
-16 -4 -16 -10z"/>
<path d="M1025 1410 c3 -5 13 -10 21 -10 8 0 12 5 9 10 -3 6 -13 10 -21 10 -8
0 -12 -4 -9 -10z"/>
<path d="M1580 1410 c-13 -8 -12 -10 3 -10 9 0 17 5 17 10 0 12 -1 12 -20 0z"/>
<path d="M1625 1410 c-5 -8 62 -7 70 2 2 2 -11 4 -30 5 -19 1 -37 -3 -40 -7z"/>
<path d="M1715 1410 c-3 -5 -2 -10 4 -10 5 0 13 5 16 10 3 6 2 10 -4 10 -5 0
-13 -4 -16 -10z"/>
<path d="M1758 1413 c6 -2 18 -2 25 0 6 3 1 5 -13 5 -14 0 -19 -2 -12 -5z"/>
<path d="M1078 1403 c6 -2 18 -2 25 0 6 3 1 5 -13 5 -14 0 -19 -2 -12 -5z"/>
<path d="M1148 1403 c17 -2 47 -2 65 0 17 2 3 4 -33 4 -36 0 -50 -2 -32 -4z"/>
<path d="M1258 1403 c6 -2 18 -2 25 0 6 3 1 5 -13 5 -14 0 -19 -2 -12 -5z"/>
<path d="M1308 1403 c7 -3 16 -2 19 1 4 3 -2 6 -13 5 -11 0 -14 -3 -6 -6z"/>
<path d="M1348 1403 c7 -3 16 -2 19 1 4 3 -2 6 -13 5 -11 0 -14 -3 -6 -6z"/>
<path d="M1398 1403 c7 -3 16 -2 19 1 4 3 -2 6 -13 5 -11 0 -14 -3 -6 -6z"/>
<path d="M1498 1403 c7 -3 16 -2 19 1 4 3 -2 6 -13 5 -11 0 -14 -3 -6 -6z"/>
<path d="M3060 1195 c-9 -11 -9 -15 -1 -15 7 0 9 -4 6 -10 -3 -5 -2 -10 3 -10
5 0 10 11 10 25 0 29 -2 30 -18 10z"/>
<path d="M2618 553 c7 -3 16 -2 19 1 4 3 -2 6 -13 5 -11 0 -14 -3 -6 -6z"/>
<path d="M2532 530 c-18 -4 -36 -11 -39 -14 -10 -10 61 5 72 15 5 5 7 9 5 8
-3 -1 -20 -5 -38 -9z"/>
<path d="M1396 355 c-11 -8 -16 -15 -10 -16 5 0 0 -4 -11 -8 -15 -7 -11 -9 19
-9 28 0 35 3 25 10 -11 7 -11 11 -1 15 13 5 17 23 5 23 -5 0 -17 -7 -27 -15z"/>
<path d="M1925 360 c-3 -5 -16 -10 -27 -10 -12 0 -18 -3 -15 -7 4 -3 2 -12 -3
-18 -8 -10 0 -11 36 -4 49 9 70 19 41 19 -10 0 -14 5 -11 15 7 17 -11 21 -21
5z m5 -20 c0 -5 -8 -10 -17 -10 -15 0 -16 2 -3 10 19 12 20 12 20 0z"/>
<path d="M2128 363 c7 -3 16 -2 19 1 4 3 -2 6 -13 5 -11 0 -14 -3 -6 -6z"/>
<path d="M1968 353 c7 -3 16 -2 19 1 4 3 -2 6 -13 5 -11 0 -14 -3 -6 -6z"/>
<path d="M1310 340 c0 -5 5 -10 10 -10 6 0 10 5 10 10 0 6 -4 10 -10 10 -5 0
-10 -4 -10 -10z"/>
<path d="M1995 330 c-3 -5 -1 -10 4 -10 6 0 11 5 11 10 0 6 -2 10 -4 10 -3 0
-8 -4 -11 -10z"/>
<path d="M1326 314 c-11 -8 -16 -14 -10 -14 13 0 39 18 34 24 -3 2 -14 -2 -24
-10z"/>
<path d="M1840 309 c0 -5 5 -7 10 -4 6 3 10 8 10 11 0 2 -4 4 -10 4 -5 0 -10
-5 -10 -11z"/>
<path d="M1388 303 c7 -3 16 -2 19 1 4 3 -2 6 -13 5 -11 0 -14 -3 -6 -6z"/>
<path d="M1512 301 c-10 -6 -8 -10 9 -14 12 -3 30 -2 38 4 12 8 10 8 -8 3 -16
-4 -21 -3 -17 5 8 13 -3 14 -22 2z"/>
<path d="M1596 301 c-4 -5 3 -7 14 -4 23 6 26 13 6 13 -8 0 -17 -4 -20 -9z"/>
<path d="M1910 300 c0 -5 7 -7 15 -4 8 4 15 8 15 10 0 2 -7 4 -15 4 -8 0 -15
-4 -15 -10z"/>
</g>
</svg>
